<?xml version="1.0" encoding="UTF-8" standalone="no"?>
<svg
   viewBox="0 0 1200 1000"
   
   id="familyTree"
   version="1.1"
   width="1200"
   height="1000"
   xmlns="http://www.w3.org/2000/svg"
   xmlns:svg="http://www.w3.org/2000/svg">
  <defs
     id="defs94" />
  <style
     id="style1">
        @import url(./style.css);
    </style>
  <g
     transform="matrix(1.3195079,0,0,1.3195079,614.31352,-113.06955)"
     id="g94">
    <g
       id="paths">
      <path
         class="linage"
         d="m -256.74164,235.26339 v 0 -55.25282 L 0,180 v -60"
         id="i_1_2"
         data-name="_FF" />
      <path
         class="linage"
         d="m 238.03551,233.43378 v 0 -38.5719 l 0.002,-14.68404 L 0,180 v -60"
         id="i_93_62"
         data-name="_FFZ" />
      <path
         class="linage"
         d="m -447.15532,352.85316 v 0 l -0.009,-52.84132 L -243.91176,300 v -60"
         id="i_61_3"
         data-name="_FZ" />
      <path
         class="linage"
         d="m -206.12915,358.64015 v 0 l -0.0402,-58.67364 93.24798,0.0335 0.34704,-60"
         id="i_59_95"
         data-name="_FZ"
          />
      <path
         class="linage"
         d="m -231.91176,360 v 0 -60 h -12 v -60"
         id="i_2_6"
         data-name="_F" />
      <path
         class="linage"
         d="m -56.655637,356.28929 v 0 -56.33609 L -112.92137,300 l 0.34703,-60"
         id="i_96_94"
         data-name="_F"
          />
      <path
         class="linage"
         d="m 245.80476,360 v 0 -60 h 36 v -60"
         id="i_62_63"
         data-name="_FFZD" />
      <path
         class="linage"
         d="m 293.80476,360 v 0 -60 h -12 v -60"
         id="i_91_66"
         data-name="_FFZS" />
      <path
         class="linage"
         d="m -399.91176,480 v 0 -60 h 180 v -60"
         id="i_59_7"
         data-name="_Z-" />
      <path
         class="linage"
         data-step='3'
         data-intro='The Green Lines show the path from "EGO" to the selected node.'
         d="m -351.91176,480 v 0 -60 h 132 v -60"
         id="i_59_10"
         data-name="_Z+" />
      <path
         class="linage"
         d="m -207.91176,480 v 0 -60 h -12 v -60"
         id="i_6_31"
         data-name="_EGO" />
      <path
         class="linage"
         d="m -111.91161,480 v 0 -60 h -108.00015 v -60"
         id="i_6_52"
         data-name="_B+" />
      <path
         class="linage"
         d="m -63.91158,480 v 0 -60 h -156.00018 v -60"
         id="i_6_55"
         data-name="_B-" />
      <path
         class="linage"
         d="m 197.8047,480 v 0 -60 h 108.00006 v -60"
         id="i_89_67"
         data-name="_FFZSD-" />
      <path
         class="linage"
         d="m 245.80476,480 v 0 -60 h 60 v -60"
         id="i_89_70"
         data-name="_FFZSD+" />
      <path
         class="linage"
         d="m 293.80476,480 v 0 -60 h 12 v -60"
         id="i_66_73"
         data-name="_FFZSS" />
      <path
         class="linage"
         d="m 341.80476,480 v 0 -60 h -36 v -60"
         id="i_66_82"
         data-name="_FFZSS+" />
      <path
         class="linage"
         d="m 389.80476,480 v 0 -60 h -84 v -60"
         id="i_66_85"
         data-name="_FFZSS-" />
      <path
         class="linage"
         d="m -399.91176,600 v 0 -60 h 60 v -60"
         id="i_10_11"
         data-name="_Z+D" />
      <path
         class="linage"
         d="m -319.91176,600 v 0 -60 h -20 v -60"
         id="i_30_20"
         data-name="_Z+S" />
      <path
         class="linage"
         d="m -207.91176,600 v 0 -60 h 60.00008 v -60"
         id="i_51_32"
         data-name="_D" />
      <path
         class="linage"
         d="m -127.91164,600 v 0 -60 h -20.00004 v -60"
         id="i_31_41"
         data-name="_S" />
      <path
         class="linage"
         d="m 269.80476,600 v 0 -60 h 36 v -60"
         id="i_81_74"
         data-name="_FFZSSD-" />
      <path
         class="linage"
         d="m 317.80476,600 v 0 -60 h -12 v -60"
         id="i_81_77"
         data-name="_FFZSSD+" />
      <path
         class="linage"
         d="m -423.91176,720 v 0 -60 h 36 v -60"
         id="i_11_12"
         data-name="_Z+DD" />
      <path
         class="linage"
         d="m -375.91176,720 v 0 -60 h -12 v -60"
         id="i_19_15"
         data-name="_Z+DS" />
      <path
         class="linage"
         d="m -327.91176,720 v 0 -60 h 36 v -60"
         id="i_28_21"
         data-name="_Z+SD" />
      <path
         class="linage"
         d="m -279.91176,720 v 0 -60 h -12 v -60"
         id="i_20_24"
         data-name="_Z+SS" />
      <path
         class="linage"
         d="m -231.91176,720 v 0 -60 h 36 v -60"
         id="i_32_33"
         data-name="_DD" />
      <path
         class="linage"
         d="m -183.91175,720 v 0 -60 h -12.00001 v -60"
         id="i_40_36"
         data-name="_DS" />
      <path
         class="linage"
         d="m -135.91165,720 v 0 -60 h 36.000064 v -60"
         id="i_49_42"
         data-name="_SD" />
      <path
         class="linage"
         d="m 114.41352,473.08891 v 0 -52.83485 L 133.88473,420 l 0.34703,-60"
         id="i_109_110"
         data-name="_FZ"
         
         transform="translate(-3.6476862e-6)" />
      <path
         class="linage"
         d="m 152.75747,470.49711 v 0 l -0.0402,-50.5439 -18.8325,0.0468 L 134.2318,360"
         id="i_111_108"
         data-name="_F"
         
         transform="translate(-3.6476862e-6)" />
      <path
         class="linage"
         d="m 45.447958,473.50298 v 0 l -0.189464,-52.43828 5.924533,-0.0172 0.01547,-60.55029"
         id="i_105_106"
         data-name="_FZ"
         
         transform="translate(-3.6476862e-6)" />
      <path
         class="linage"
         d="m 84.493268,473.5001 v 0 l -0.3025,-52.5 -33.007741,0.0474 0.01546,-60.55026"
         id="i_104_107"
         data-name="_F"
         
         transform="translate(-3.6476862e-6)" />
      <path
         class="linage"
         d="m -18.216227,472.50288 v 0 l -0.189464,-52.43828 3.305787,0.0162 0.07459,-60.98896"
         id="i_94_102"
         data-name="_FZ"
         
         transform="translate(-3.6476862e-6)" />
      <path
         class="linage"
         d="m 20.829079,472.5 v 0 l -0.3025,-52.5 -35.626483,0.0808 0.07459,-60.98896"
         id="i_103_100"
         data-name="_F"
         
         transform="translate(-3.6476862e-6)" />
      <path
         class="linage"
         d="m 68.550843,352.5918 v 0 -52.83485 l 19.471211,-0.25406 0.34703,-60"
         id="i_98_105"
         data-name="_FZ"
         
         transform="translate(-3.6476862e-6)" />
      <path
         class="linage"
         d="m 106.89479,350 v 0 l -0.0402,-50.5439 -18.832496,0.0468 0.34703,-60.00001"
         id="i_108_99"
         data-name="_F"
         
         transform="translate(-3.6476862e-6)" />
      <path
         class="linage"
         d="m -87.911583,720 v 0 -60 h -12.000003 v -60"
         id="i_41_45"
         data-name="_SS" />
      <path
         class="marriage"
         id="marriage_3_5"
         data-name="_"
         d="m -446.64096,360 h 12 v 0 0 0 0 0 0 0 h 12 v 0" />
      <path
         class="marriage"
         id="marriage_7_9"
         data-name="_"
         d="m -399.91176,480 h 12 v 0 0 0 0 0 0 0 h 12 v 0" />
      <path
         class="marriage"
         id="marriage_22_24"
         data-name="_"
         d="m -423.91176,720 h 12 v 0 0 0 0 0 0 0 h 12 v 0" />
      <path
         class="marriage"
         id="marriage_25_27"
         data-name="_"
         d="m -375.91176,720 h 12 v 0 0 0 0 0 0 0 h 12 v 0" />
      <path
         class="marriage"
         id="marriage_19_11"
         data-name="_"
         d="m -399.91176,600 h 12 v 0 0 0 0 0 0 0 h 28 v 0" />
      <path
         class="marriage"
         id="marriage_31_33"
         data-name="_"
         d="m -327.91176,720 h 12 v 0 0 0 0 0 0 0 h 12 v 0" />
      <path
         class="marriage"
         id="marriage_34_36"
         data-name="_"
         d="m -279.91176,720 h 12 v 0 0 0 0 0 0 0 h 12 v 0" />
      <path
         class="marriage"
         id="marriage_28_20"
         data-name="_"
         d="m -319.91176,600 h 12 v 0 0 0 h 16 v 0 0 0 h 12 v 0" />
      <path
         class="marriage"
         id="marriage_10_30"
         data-name="_"
         d="m -351.91176,480 h 12 v 0 0 0 0 0 0 0 h 60 v 0" />
      <path
         class="marriage"
         id="marriage_43_45"
         data-name="_"
         d="m -231.91176,720 h 12 v 0 0 0 0 0 0 0 h 12 v 0" />
      <path
         class="marriage"
         id="marriage_46_48"
         data-name="_"
         d="m -183.91175,720 h 12.00002 v 0 0 0 0 0 0 0 h 12.00003 v 0" />
      <path
         class="marriage"
         id="marriage_40_32"
         data-name="_"
         d="m -207.91176,600 h 12 v 0 0 0 0 0 0 0 h 28.00004 v 0" />
      <path
         class="marriage"
         id="marriage_42_44"
         data-name="_"
         d="m -135.91165,720 h 12.00002 v 0 0 0 0 0 0 0 h 12.00002 v 0" />
      <path
         class="marriage"
         id="marriage_55_57"
         data-name="_"
         d="m -87.911583,720 h 12.000003 v 0 0 0 0 0 0 0 h 12 v 0" />
      <path
         class="marriage"
         id="marriage_49_51"
         data-name="_"
         d="m -127.91164,600 h 12.00002 v 0 0 0 h 16.000034 v 0 0 0 h 12.000003 v 0" />
      <path
         class="marriage"
         id="marriage_51_31"
         data-name="_"
         d="m -207.91176,480 h 12 v 0 0 0 h 48.00008 v 0 0 0 h 12.00003 v 0" />
      <path
         class="marriage"
         id="marriage_52_54"
         data-name="_"
         d="m -111.91161,480 h 12.000024 v 0 0 0 0 0 0 0 h 12.000003 v 0" />
      <path
         class="marriage"
         id="marriage_61_63"
         data-name="_"
         d="m -63.91158,480 h 12 v 0 0 0 0 0 0 0 h 12 v 0" />
      <path
         class="marriage"
         id="marriage_10_12"
         data-name="_"
         d="m -231.91176,360 h 12 v 0 0 0 0 0 0 0 h 12 v 0" />
      <path
         class="marriage"
         id="marriage_4_6"
         data-name="_"
         d="m -255.91176,240 h 12 v 0 0 0 0 0 0 0 h 14.59305 v 0" />
      <path
         class="marriage"
         id="marriage_63_65"
         data-name="_"
         d="m 245.80476,360 h 12 v 0 0 0 0 0 0 0 h 12 v 0" />
      <path
         class="marriage"
         id="marriage_73_75"
         data-name="_"
         d="m 197.8047,480 h 12.00003 v 0 0 0 0 0 0 0 h 12.00002 v 0" />
      <path
         class="marriage"
         id="marriage_76_78"
         data-name="_"
         d="m 245.80476,480 h 12 v 0 0 0 0 0 0 0 h 12 v 0" />
      <path
         class="marriage"
         id="marriage_74_76"
         data-name="_"
         d="m 269.80476,600 h 12 v 0 0 0 0 0 0 0 h 12 v 0" />
      <path
         class="marriage"
         id="marriage_85_87"
         data-name="_"
         d="m 317.80476,600 h 12 v 0 0 0 0 0 0 0 h 12 v 0" />
      <path
         class="marriage"
         id="marriage_79_81"
         data-name="_"
         d="m 293.80476,480 h 12 v 0 0 0 0 0 0 0 h 12 v 0" />
      <path
         class="marriage"
         id="marriage_88_90"
         data-name="_"
         d="m 341.80476,480 h 12 v 0 0 0 0 0 0 0 h 12 v 0" />
      <path
         class="marriage"
         id="marriage_91_93"
         data-name="_"
         d="m 389.80476,480 h 12 v 0 0 0 0 0 0 0 h 12 v 0" />
      <path
         class="marriage"
         id="marriage_66_89"
         data-name="_"
         d="m 293.80476,360 h 12 v 0 0 0 0 0 0 0 h 12 v 0" />
      <path
         class="marriage"
         id="marriage_62_91"
         data-name="_"
         d="m 241.61204,240 v 0 0 l 3.5906,0.0335 2.58772,-0.0196 35.6959,-0.0139 v 0 0 0 h 12 -1.6815" />
      <path
         class="marriage"
         id="marriage_1_3"
         data-name="_"
         d="M -12,120 H 0 v 0 0 0 0 0 0 0 h 12 v 0" />
      <path
         class="marriage"
         id="marriage_96_95"
         data-name="_"
         d="m -132.15295,240 h 12.00001 v 0 0 0 0 0 0 0 h 12.00002 v 0"
          />
      <path
         class="marriage"
         id="marriage_108_109"
         data-name="_"
         d="m 110.94695,360.48276 26.40195,0.0144 v 0 0 0 0 0 0 0 h 6.71868 v 0"
         
         transform="translate(-3.6476862e-6)" />
      <path
         class="marriage"
         id="marriage_98_99"
         data-name="_"
         d="m 79.486232,240 h 11.999986 v 0 0 0 0 0 0 0 h 12.000002 v 0"
          />
      <path
         class="marriage"
         id="marriage_94_100"
         data-name="_"
         d="m -49.498412,359.5918 h 11.999981 v 0 0 0 0 0 0 0 h 28.6255153 v 0"
         
         transform="translate(-3.6476862e-6)" />
      <path
         class="marriage"
         id="marriage_104_105"
         data-name="_"
         d="m 38.090927,360.99721 v 0 0 0 0 0 0 0 0 h 24.189444 v 0"
         
         transform="translate(-3.6476862e-6)" />
      <path
         class="linage"
         d="m -228.7917,230 c 18.0814,-12.63143 28.5814,2.62323 28.5814,2.62323"
         id="i_61_101" />
      <path
         class="linage"
         d="m -161.54659,230 c 21.86306,-14.14715 31.3937,2.5 31.3937,2.5"
         id="i_97_96" />
      <path
         class="linage"
         d="m -98.759182,230 c 96.3443249,-22.29412 168.730673,2.5 168.730673,2.5"
         id="i_95_98" />
      <path
         class="linage"
         d="m -399.91156,590 c 41.49118,-26.66913 80,2.99999 80,2.99999"
         id="i_11_20" />
      <path
         class="linage"
         d="m -207.91156,590 c 44.4863,-29.32163 79.99999,2.99999 79.99999,2.99999"
         id="I_32_41" />
      <path
         class="linage"
         d="m -423.91156,710 c 23.9998,-22.00144 48,2.99999 48,2.99999"
         id="i_12_15" />
      <path
         class="linage"
         d="m -327.91156,710 c 27.9998,-20.67519 48,2.99999 48,2.99999"
         id="i_21_24" />
      <path
         class="linage"
         d="m -231.91156,710 c 27.19434,-20.86465 47.99999,2.99999 47.99999,2.99999"
         id="i_33_36" />
      <path
         class="linage"
         d="m -135.91159,710 c 27.02054,-22.56983 48.000035,2.99999 48.000035,2.99999"
         id="i_42_45" />
      <path
         class="linage"
         data-step='4'
         data-intro='The Purple Lines show the path from "EGO" to the Jiliwiri inversion of the selected node.'
         d="m -351.91156,470 c 75.11914,-33.57144 143.9998,-1.45456 143.9998,-1.45456"
         id="i_10_31" />
      <path
         class="linage"
         d="M -255.91156,233 C 8.0851405,149.9971 237.88601,230 237.88601,230"
         id="i_2_62" />
      <path
         class="linage"
         d="m -207.91156,350 c 77.75867,-28.51915 152.771661,2.5 152.771661,2.5"
         id="i_59_94" />
      <path
         class="linage"
         d="M 68.550841,352.5918 C 87.519185,331.04731 106.89479,350 106.89479,350"
         id="i_105_108" />
      <path
         class="linage"
         d="m 245.80447,350 c 25.74513,-19.67702 48.00004,3 48.00004,3"
         id="i_63_66" />
      <path
         class="linage"
         d="M -18.216233,472.50288 C 1.8646094,452.23722 21.543764,470 21.543764,470"
         id="i_102_103" />
      <path
         class="linage"
         d="m 45.447955,473.50298 c 22.39012,-23.81123 39.759997,-2.50289 39.759997,-2.50289"
         id="path18" />
      <path
         class="linage"
         d="m 114.41352,473.08893 c 20.31823,-22.48948 38.34391,-2.5918 38.34391,-2.5918"
         id="i_110_111" />
      <path
         class="linage"
         d="m 245.80447,470 c 24.00029,-23.3793 48.00004,3 48.00004,3"
         id="i_70_73" />
      <path
         class="linage"
         d="m 269.80447,590 c 24.00027,-20.13565 47.99997,0 47.99997,0"
         id="i_74_77" />
      <path
         class="linage"
         d="m -452.73645,474.80068 0.0273,-13.66639 0.0397,-41.13429 h 18.02849 l -0.1549,-60.46471"
         id="i_5_115"
         data-name="_Z-"
         class="linage" />
      <path
         class="linage"
         d="M -424.89252,471.57976 V 457.32724 420 h -9.74844 l -0.1549,-60.46471"
         id="i_3_116"
         data-name="_Z-"
         class="linage" />
      <path
         class="linage"
         d="m -446.64038,350 c 109.15472,-39.77276 214.72882,3 214.72882,3"
         id="i_3_6" />
      <path
         class="linage"
         d="m -399.91156,470 c 109.5,-45.89682 191.9998,-1.45456 191.9998,-1.45456"
         id="i_7_31" />
      <path
         class="linage"
         d="M -207.91176,468.54544 C -151.04659,438.84006 -111.91156,473 -111.91156,473"
         id="i_52_31" />
      <path
         class="linage"
         d="M -207.91176,468.54544 C -146.41159,426.348 -63.911565,473 -63.911565,473"
         id="i_55_31" />
    </g>
    <rect
       class="clickable"
       x="-22"
       y="113"
       width="20"
       height="15"
       id="node1" />
    <rect
       class="clickable"
       x="-265.91156"
       y="233"
       width="20"
       height="15"
       id="node2" />
    <rect
       class="clickable"
       x="283.80447"
       y="233"
       width="20"
       height="15"
       id="node91" />
    <rect
       class="clickable"
       x="-432.64038"
       y="353"
       width="20"
       height="15"
       id="node5" />
    <rect
       class="clickable"
       x="-241.91156"
       y="353"
       width="20"
       height="15"
       id="node6" />
    <rect
       class="clickable"
       x="-65.1399"
       y="352.5"
       width="20"
       height="15"
       id="node94"
        />
    <rect
       class="clickable"
       x="-140.15289"
       y="232.5"
       width="20"
       height="15"
       id="node96"
        />
    <rect
       class="clickable"
       x="259.80447"
       y="353"
       width="20"
       height="15"
       id="node65" />
    <rect
       class="clickable"
       x="283.80447"
       y="353"
       width="20"
       height="15"
       id="node66" />
    <rect
       class="clickable"
       x="-385.91156"
       y="473"
       width="20"
       height="15"
       id="node9" />
    <rect
       class="clickable"
       x="-289.91156"
       y="473"
       width="20"
       height="15"
       id="node30" />
      <g
         data-step='1'
         data-intro='Hello! This node is "EGO," or the reference point of all kinship relations.'
         >
         <rect
            class="clickable ego"
            data-step='5'
            data-intro='Clicking on "EGO" will unhighlight the pathways.'
            x="-221.57957"
            y="468.46017"
            width="29.819763"
            height="23.079651"
            id="node31"
         />
      </g>
    <rect
       class="clickable"
       x="-121.91156"
       y="473"
       width="20"
       height="15"
       id="node52" />
    <rect
       class="clickable"
       x="-73.911568"
       y="473"
       width="20"
       height="15"
       id="node55" />
    <rect
       class="clickable"
       x="211.8045"
       y="473"
       width="20"
       height="15"
       id="node69" />
    <rect
       class="clickable"
       x="259.80447"
       y="473"
       width="20"
       height="15"
       id="node72" />
    <rect
       class="clickable"
       x="283.80447"
       y="473"
       width="20"
       height="15"
       id="node73" />
    <rect
       class="clickable"
       x="331.80447"
       y="473"
       width="20"
       height="15"
       id="node82" />
    <rect
       class="clickable"
       x="379.80447"
       y="473"
       width="20"
       height="15"
       id="node85" />
    <rect
       class="clickable"
       x="-369.91156"
       y="593"
       width="20"
       height="15"
       id="node19" />
    <rect
       class="clickable"
       x="-329.91156"
       y="593"
       width="20"
       height="15"
       id="node20" />
    <rect
       class="clickable"
       x="-177.91159"
       y="593"
       width="20"
       height="15"
       id="node40" />
    <rect
       class="clickable"
       x="-137.91158"
       y="593"
       width="20"
       height="15"
       id="node41" />
    <rect
       class="clickable"
       x="283.80447"
       y="593"
       width="20"
       height="15"
       id="node76" />
    <rect
       class="clickable"
       x="331.80447"
       y="593"
       width="20"
       height="15"
       id="node79" />
    <rect
       class="clickable"
       x="-409.91156"
       y="713"
       width="20"
       height="15"
       id="node14" />
    <rect
       class="clickable"
       x="-385.91156"
       y="713"
       width="20"
       height="15"
       id="node15" />
    <rect
       class="clickable"
       x="-313.91156"
       y="713"
       width="20"
       height="15"
       id="node23" />
    <rect
       class="clickable"
       x="-289.91156"
       y="713"
       width="20"
       height="15"
       id="node24" />
    <rect
       class="clickable"
       x="-217.91156"
       y="713"
       width="20"
       height="15"
       id="node35" />
    <rect
       class="clickable"
       x="-193.91158"
       y="713"
       width="20"
       height="15"
       id="node36" />
    <rect
       class="clickable"
       x="-121.91156"
       y="713"
       width="20"
       height="15"
       id="node44" />
    <rect
       class="clickable"
       x="-210.2103"
       y="232.62323"
       width="20"
       height="15"
       id="node101"
       
       transform="translate(-3.6476862e-6)" />
    <rect
       class="clickable"
       x="-22.914856"
       y="472.5"
       width="20"
       height="15"
       id="node102"
       
       transform="translate(-3.6476862e-6)" />
    <rect
       class="clickable"
       x="141.98532"
       y="352.5"
       width="20"
       height="15"
       id="node109"
       
       transform="translate(-3.6476862e-6)" />
    <rect
       class="clickable"
       x="104.41352"
       y="473.08893"
       width="20"
       height="15"
       id="node110"
       
       transform="translate(-3.6476862e-6)" />
    <rect
       class="clickable"
       x="40.749329"
       y="473.50009"
       width="20"
       height="15"
       id="node106"
       
       transform="translate(-3.6476862e-6)" />
    <rect
       class="clickable"
       x="58.550827"
       y="352.5918"
       width="20"
       height="15"
       id="node105"
       
       transform="translate(-3.6476862e-6)" />
    <rect
       class="clickable"
       x="59.971497"
       y="232.5"
       width="20"
       height="15"
       id="node98"
       
       transform="translate(-3.6476862e-6)" />
    <rect
       class="clickable"
       x="-97.91156"
       y="713"
       width="20"
       height="15"
       id="node45" />
    <circle
       class="clickable"
       cx="12"
       cy="120"
       r="10"
       id="node93" />
    <circle
       class="clickable"
       cx="-228.7917"
       cy="240"
       r="10"
       id="node61" />
    <circle
       class="clickable"
       cx="237.886"
       cy="240"
       r="10"
       id="node62" />
    <circle
       class="clickable"
       cx="-446.64038"
       cy="360"
       id="node3"
       r="10" />
    <circle
       class="clickable"
       data-step='2'
       data-intro='Click on a node to use the program. The node and two lines will be highlighted.'
       cx="-207.91156"
       cy="360"
       r="10"
       id="node59" />
    <circle
       class="clickable"
       cx="106.89476"
       cy="360"
       r="10"
       id="node108"
        />
    <circle
       class="clickable"
       cx="245.80447"
       cy="360"
       r="10"
       id="node63" />
    <circle
       class="clickable"
       cx="317.80447"
       cy="360"
       r="10"
       id="node89" />
    <circle
       class="clickable"
       cx="-399.91156"
       cy="480"
       r="10"
       id="node7" />
    <circle
       class="clickable"
       cx="-351.91156"
       cy="480"
       r="10"
       id="node10" />
    <circle
       class="clickable"
       cx="-135.91159"
       cy="480"
       r="10"
       id="node51" />
    <circle
       class="clickable"
       cx="-87.91156"
       cy="480"
       r="10"
       id="node54" />
    <circle
       class="clickable"
       cx="-39.91156"
       cy="480"
       r="10"
       id="node57" />
    <circle
       class="clickable"
       cx="197.80449"
       cy="480"
       r="10"
       id="node67" />
    <circle
       class="clickable"
       cx="245.80447"
       cy="480"
       r="10"
       id="node70" />
    <circle
       class="clickable"
       cx="317.80447"
       cy="480"
       r="10"
       id="node81" />
    <circle
       class="clickable"
       cx="365.80447"
       cy="480"
       r="10"
       id="node84" />
    <circle
       class="clickable"
       cx="413.80447"
       cy="480"
       r="10"
       id="node87" />
    <circle
       class="clickable"
       cx="-399.91156"
       cy="600"
       r="10"
       id="node11" />
    <circle
       class="clickable"
       cx="-279.91156"
       cy="600"
       r="10"
       id="node28" />
    <circle
       class="clickable"
       cx="-207.91156"
       cy="600"
       r="10"
       id="node32" />
    <circle
       class="clickable"
       cx="-87.91156"
       cy="600"
       r="10"
       id="node49" />
    <circle
       class="clickable"
       cx="269.80447"
       cy="600"
       r="10"
       id="node74" />
    <circle
       class="clickable"
       cx="317.80447"
       cy="600"
       r="10"
       id="node77" />
    <circle
       class="clickable"
       cx="-423.91156"
       cy="720"
       r="10"
       id="node12" />
    <circle
       class="clickable"
       cx="-351.91156"
       cy="720"
       r="10"
       id="node17" />
    <circle
       class="clickable"
       cx="-327.91156"
       cy="720"
       r="10"
       id="node21" />
    <circle
       class="clickable"
       cx="-255.91156"
       cy="720"
       r="10"
       id="node26" />
    <circle
       class="clickable"
       cx="-231.91156"
       cy="720"
       r="10"
       id="node33" />
    <circle
       class="clickable"
       cx="-159.91158"
       cy="720"
       r="10"
       id="node38" />
    <circle
       class="clickable"
       cx="-135.91159"
       cy="720"
       r="10"
       id="node42" />
    <circle
       class="clickable"
       cx="-63.91156"
       cy="720"
       r="10"
       id="node47" />
    <circle
       class="clickable"
       cx="-161.54659"
       cy="240"
       r="10"
       id="node97"
       
       transform="translate(-3.6476862e-6)" />
    <circle
       class="clickable"
       cx="107.48621"
       cy="240"
       r="10"
       id="node99"
       
       transform="translate(-3.6476862e-6)" />
    <circle
       class="clickable"
       cx="-2.414856"
       cy="360.0918"
       r="10"
       id="node100"
       
       transform="translate(-3.6476862e-6)" />
    <circle
       class="clickable"
       cx="21.54377"
       cy="480"
       r="10"
       id="node103"
       
       transform="translate(-3.6476862e-6)" />
    <circle
       class="clickable"
       cx="85.207954"
       cy="481.00009"
       r="10"
       id="node107"
       
       transform="translate(-3.6476862e-6)" />
    <circle
       class="clickable"
       cx="30.206894"
       cy="360.99722"
       r="10"
       id="node104"
       
       transform="translate(-3.6476862e-6)" />
    <circle
       class="clickable"
       cx="-98.759186"
       cy="240"
       r="10"
       id="node95"
        />
    <circle
       class="clickable"
       cx="152.75743"
       cy="480.49713"
       r="10"
       id="node111"
       
       transform="translate(-3.6476862e-6)" />
    <text
       id="text1" />
    <text
       text-anchor="middle"
       
       x="-13"
       y="120"
       width="20"
       height="7.5"
       id="text2">FFF</text>
    <text
       id="text3" />
    <text
       text-anchor="middle"
       
       x="11"
       y="120"
       width="20"
       height="7.5"
       id="text4">FFM</text>
    <text
       text-anchor="middle"
       
       x="-256.91156"
       y="240"
       width="20"
       height="7.5"
       id="text5">FF</text>
    <text
       id="text6" />
    <text
       text-anchor="middle"
       
       x="-229.7917"
       y="240"
       width="20"
       height="7.5"
       id="text7">FM</text>
    <text
       text-anchor="middle"
       
       x="236.886"
       y="240"
       width="20"
       height="7.5"
       id="text8">FFZ</text>
    <text
       id="text9" />
    <text
       text-anchor="middle"
       
       x="292.80447"
       y="240"
       width="20"
       height="7.5"
       id="text10">FFZH</text>
    <text
       text-anchor="middle"
       
       x="-446.12466"
       y="360"
       width="20"
       height="7.5"
       id="text11">FZ</text>
    <text
       id="text12" />
    <text
       text-anchor="middle"
       
       x="-423.64038"
       y="360"
       width="20"
       height="7.5"
       id="text13">FZH</text>
    <text
       text-anchor="middle"
       
       x="-232.91156"
       y="360"
       width="20"
       height="7.5"
       id="text14">F</text>
    <text
       id="text15" />
    <text
       text-anchor="middle"
       
       x="-208.91156"
       y="360"
       width="20"
       height="7.5"
       id="text16">M</text>
    <text
       text-anchor="middle"
       
       x="244.80447"
       y="360"
       width="20"
       height="7.5"
       id="text17">FFZD</text>
    <text
       id="text18" />
    <text
       text-anchor="middle"
       
       x="268.80447"
       y="360"
       width="20"
       height="7.5"
       id="text19">FFZDH</text>
    <text
       text-anchor="middle"
       
       x="292.80447"
       y="360"
       width="20"
       height="7.5"
       id="text20">FFZS</text>
    <text
       id="text21" />
    <text
       text-anchor="middle"
       
       x="316.80447"
       y="360"
       width="20"
       height="7.5"
       id="text22">FFZSW</text>
    <text
       text-anchor="middle"
       
       x="-400.91156"
       y="480"
       width="20"
       height="7.5"
       id="text23">Z-</text>
    <text
       id="text24" />
    <text
       text-anchor="middle"
       
       x="-376.91156"
       y="480"
       width="20"
       height="7.5"
       id="text25">Z-H</text>
    <text
       text-anchor="middle"
       
       x="-352.91156"
       y="480"
       width="20"
       height="7.5"
       id="text26">Z+</text>
    <text
       id="text27" />
    <text
       text-anchor="middle"
       
       x="-280.91156"
       y="480"
       width="20"
       height="7.5"
       id="text28">Z+H</text>
    <text
       text-anchor="middle"
       
       x="-206.88185"
       y="483.67334"
       width="20"
       height="7.5"
       id="egoText">EGO</text>
    <text
       id="text30" />
    <text
       text-anchor="middle"
       
       x="-136.91159"
       y="480"
       width="20"
       height="7.5"
       id="text31">W</text>
    <text
       text-anchor="middle"
       
       x="-112.91156"
       y="480"
       width="20"
       height="7.5"
       id="text32">B+</text>
    <text
       id="text33" />
    <text
       text-anchor="middle"
       
       x="-88.91156"
       y="480"
       width="20"
       height="7.5"
       id="text34">B+W</text>
    <text
       text-anchor="middle"
       
       x="-64.91156"
       y="480"
       width="20"
       height="7.5"
       id="text35">B-</text>
    <text
       id="text36" />
    <text
       text-anchor="middle"
       
       x="-40.91156"
       y="480"
       width="20"
       height="7.5"
       id="text37">B-W</text>
    <text
       text-anchor="middle"
       
       x="196.80449"
       y="480"
       width="20"
       height="7.5"
       id="text38">FFZSD-</text>
    <text
       id="text39" />
    <text
       text-anchor="middle"
       
       x="220.80449"
       y="480"
       width="20"
       height="7.5"
       id="text40">FFZSD-H</text>
    <text
       text-anchor="middle"
       
       x="244.80447"
       y="480"
       width="20"
       height="7.5"
       id="text41">FFZSD+</text>
    <text
       id="text42" />
    <text
       text-anchor="middle"
       
       x="268.80447"
       y="480"
       width="20"
       height="7.5"
       id="text43">FFZSD+H</text>
    <text
       text-anchor="middle"
       
       x="292.80447"
       y="480"
       width="20"
       height="7.5"
       id="text44">FFZSS</text>
    <text
       id="text45" />
    <text
       text-anchor="middle"
       
       x="316.80447"
       y="480"
       width="20"
       height="7.5"
       id="text46">FFZSSW</text>
    <text
       text-anchor="middle"
       
       x="340.80447"
       y="480"
       width="20"
       height="7.5"
       id="text47">FFZSS+</text>
    <text
       id="text48" />
    <text
       text-anchor="middle"
       
       x="364.80447"
       y="480"
       width="20"
       height="7.5"
       id="text49">FFZSS+W</text>
    <text
       text-anchor="middle"
       
       x="388.80447"
       y="480"
       width="20"
       height="7.5"
       id="text50">FFZSS-</text>
    <text
       id="text51" />
    <text
       text-anchor="middle"
       
       x="412.80447"
       y="480"
       width="20"
       height="7.5"
       id="text52">FFZSS-W</text>
    <text
       text-anchor="middle"
       
       x="-400.91156"
       y="600"
       width="20"
       height="7.5"
       id="text53">Z+D</text>
    <text
       id="text54" />
    <text
       text-anchor="middle"
       
       x="-360.91156"
       y="600"
       width="20"
       height="7.5"
       id="text55">Z+DH</text>
    <text
       text-anchor="middle"
       
       x="-320.91156"
       y="600"
       width="20"
       height="7.5"
       id="text56">Z+S</text>
    <text
       id="text57" />
    <text
       text-anchor="middle"
       
       x="-280.91156"
       y="600"
       width="20"
       height="7.5"
       id="text58">Z+SW</text>
    <text
       text-anchor="middle"
       
       x="-208.91156"
       y="600"
       width="20"
       height="7.5"
       id="text59">D</text>
    <text
       id="text60" />
    <text
       text-anchor="middle"
       
       x="-168.91159"
       y="600"
       width="20"
       height="7.5"
       id="text61">Z+SH</text>
    <text
       text-anchor="middle"
       
       x="-128.91159"
       y="600"
       width="20"
       height="7.5"
       id="text62">S</text>
    <text
       id="text63" />
    <text
       text-anchor="middle"
       
       x="-88.91156"
       y="600"
       width="20"
       height="7.5"
       id="text64">SW</text>
    <text
       text-anchor="middle"
       
       x="268.80447"
       y="600"
       width="20"
       height="7.5"
       id="text65">FFZSSD-</text>
    <text
       id="text66" />
    <text
       text-anchor="middle"
       
       x="292.80447"
       y="600"
       width="20"
       height="7.5"
       id="text67">FFZSSD-H</text>
    <text
       text-anchor="middle"
       
       x="316.80447"
       y="600"
       width="20"
       height="7.5"
       id="text68">FFZSSD+</text>
    <text
       id="text69" />
    <text
       text-anchor="middle"
       
       x="340.80447"
       y="600"
       width="20"
       height="7.5"
       id="text70">FFZSSD+H</text>
    <text
       text-anchor="middle"
       
       x="-424.91156"
       y="720"
       width="20"
       height="7.5"
       id="text71">Z+DD</text>
    <text
       id="text72" />
    <text
       text-anchor="middle"
       
       x="-400.91156"
       y="720"
       width="20"
       height="7.5"
       id="text73">Z+DDH</text>
    <text
       text-anchor="middle"
       
       x="-376.91156"
       y="720"
       width="20"
       height="7.5"
       id="text74">Z+DS</text>
    <text
       id="text75" />
    <text
       text-anchor="middle"
       
       x="-352.91156"
       y="720"
       width="20"
       height="7.5"
       id="text76">Z+DSW</text>
    <text
       text-anchor="middle"
       
       x="-328.91156"
       y="720"
       width="20"
       height="7.5"
       id="text77">Z+SD</text>
    <text
       id="text78" />
    <text
       text-anchor="middle"
       
       x="-304.91156"
       y="720"
       width="20"
       height="7.5"
       id="text79">Z+SDH</text>
    <text
       text-anchor="middle"
       
       x="-280.91156"
       y="720"
       width="20"
       height="7.5"
       id="text80">Z+SS</text>
    <text
       id="text81" />
    <text
       text-anchor="middle"
       
       x="-256.91156"
       y="720"
       width="20"
       height="7.5"
       id="text82">Z+SSW</text>
    <text
       text-anchor="middle"
       
       x="-232.91156"
       y="720"
       width="20"
       height="7.5"
       id="text83">DD</text>
    <text
       id="text84" />
    <text
       text-anchor="middle"
       
       x="-208.91156"
       y="720"
       width="20"
       height="7.5"
       id="text85">DDH</text>
    <text
       text-anchor="middle"
       
       x="-184.91158"
       y="720"
       width="20"
       height="7.5"
       id="text86">DS</text>
    <text
       id="text87" />
    <text
       text-anchor="middle"
       
       x="-160.91158"
       y="720"
       width="20"
       height="7.5"
       id="text88">DSW</text>
    <text
       text-anchor="middle"
       
       x="-136.91159"
       y="720"
       width="20"
       height="7.5"
       id="text89">SD</text>
    <text
       id="text90" />
    <text
       text-anchor="middle"
       
       x="-112.91156"
       y="720"
       width="20"
       height="7.5"
       id="text91">SDH</text>
    <text
       text-anchor="middle"
       
       x="-88.91156"
       y="720"
       width="20"
       height="7.5"
       id="text92">SS</text>
    <text
       id="text93" />
    <text
       text-anchor="middle"
       
       x="-64.91156"
       y="720"
       width="20"
       height="7.5"
       id="text94">SSW</text>
    <text
       xml:space="preserve"
       
       x="-199.1754"
       y="491.53979"
       id="text95"><tspan
         id="tspan22"
         
         x="-199.1754"
         y="491.53979" /></text>
    <text
       text-anchor="middle"
       
       x="-199.86897"
       y="240.5"
       width="20"
       height="7.5"
       id="text14-4">FMB</text>
    <text
       text-anchor="middle"
       
       x="-56.62492"
       y="361.4541"
       width="20"
       height="7.5"
       id="text14-9" />
    <text
       text-anchor="middle"
       
       x="-56.038158"
       y="361.4541"
       width="20"
       height="7.5"
       id="text16-8">MB</text>
    <text
       text-anchor="middle"
       
       x="-130.15289"
       y="241.4541"
       width="20"
       height="7.5"
       id="text16-9">MF</text>
    <text
       xml:space="preserve"
       
       x="-99.895966"
       y="240"
       id="text96"><tspan
         id="tspan95"
          /></text>
    <text
       text-anchor="middle"
       
       x="-99.643097"
       y="241.4541"
       width="20"
       height="7.5"
       id="text16-3">MM</text>
    <text
       text-anchor="middle"
       
       x="-161.87663"
       y="241.4541"
       width="20"
       height="7.5"
       id="text16-7">MFZ</text>
    <text
       text-anchor="middle"
       
       x="69.855286"
       y="241.4541"
       width="20"
       height="7.5"
       id="text16-2">MMB</text>
    <text
       text-anchor="middle"
       
       x="106.52686"
       y="241.4541"
       width="20"
       height="7.5"
       id="text16-98">MMBW</text>
    <text
       text-anchor="middle"
       
       x="67.748848"
       y="361.44449"
       width="20"
       height="7.5"
       id="text16-5">MMBS</text>
    <text
       text-anchor="middle"
       
       x="106.81664"
       y="361.4541"
       width="20"
       height="7.5"
       id="text16-1">MMBD</text>
    <text
       text-anchor="middle"
       
       x="30.183697"
       y="361.44449"
       width="20"
       height="7.5"
       id="text16-79">MMBSW</text>
    <text
       text-anchor="middle"
       
       x="151.98532"
       y="361.4541"
       width="20"
       height="7.5"
       id="text16-985">MMBDH</text>
    <text
       text-anchor="middle"
       
       x="50.105568"
       y="482.45419"
       width="20"
       height="7.5"
       id="text16-95">MMBSS</text>
    <text
       text-anchor="middle"
       
       x="85.129829"
       y="482.45419"
       width="20"
       height="7.5"
       id="text16-12">MMBSD</text>
    <text
       text-anchor="middle"
       
       x="-2.4915349"
       y="360.5459"
       width="20"
       height="7.5"
       id="text16-6">MBW</text>
    <text
       text-anchor="middle"
       
       x="-12.868591"
       y="481.4541"
       width="20"
       height="7.5"
       id="text16-54">MBS</text>
    <text
       text-anchor="middle"
       
       x="21.465641"
       y="481.4541"
       width="20"
       height="7.5"
       id="text16-16">MBD</text>
    <rect
       class="clickable"
       x="-462.20056"
       y="473"
       width="20"
       height="15"
       id="node115"
        />
    <circle
       class="clickable"
       cx="-424.89252"
       cy="480"
       id="node116"
       r="10"
        />
    <text
       text-anchor="middle"
       
       x="-453.02951"
       y="481.4541"
       width="20"
       height="7.5"
       id="text11-6">FZS</text>
    <text
       text-anchor="middle"
       
       x="-425.3139"
       y="481.4541"
       width="20"
       height="7.5"
       id="text11-2">FZD</text>
  </g>
  <text
     text-anchor="middle"
     
     x="765.83362"
     y="523.53259"
     width="20"
     height="7.5"
     id="text16-74">MMBDS</text>
  <text
     text-anchor="middle"
     
     x="815.77509"
     y="523.53259"
     width="20"
     height="7.5"
     id="text16-26">MMBDD</text>
</svg>
