<?xml version="1.0" encoding="UTF-8" standalone="no"?>
<svg
   viewBox="0,0,1200,1600"
   style="touch-action: none; -webkit-tap-highlight-color: rgba(0, 0, 0, 0);"
   id="familyTree"
   version="1.1"
   sodipodi:docname="InkscapeTree.svg"
   inkscape:version="1.3.2 (091e20e, 2023-11-25, custom)"
   xmlns:inkscape="http://www.inkscape.org/namespaces/inkscape"
   xmlns:sodipodi="http://sodipodi.sourceforge.net/DTD/sodipodi-0.dtd"
   xmlns="http://www.w3.org/2000/svg"
   xmlns:svg="http://www.w3.org/2000/svg">
  <defs
     id="defs94" />
  <sodipodi:namedview
     id="namedview94"
     pagecolor="#ffffff"
     bordercolor="#000000"
     borderopacity="0.25"
     inkscape:showpageshadow="2"
     inkscape:pageopacity="0.0"
     inkscape:pagecheckerboard="0"
     inkscape:deskcolor="#d1d1d1"
     inkscape:document-units="px"
     inkscape:zoom="1"
     inkscape:cx="414.5"
     inkscape:cy="344.5"
     inkscape:window-width="1597"
     inkscape:window-height="1251"
     inkscape:window-x="1593"
     inkscape:window-y="0"
     inkscape:window-maximized="0"
     inkscape:current-layer="g94" />
  <style
     id="style1">
        @import url(./style.css);
    </style>
  <g
     transform="translate(614.3135248131508,-113.0695466604858) scale(1.3195079107728946)"
     id="g94">
    <path
       class="linage"
       d="m -241.43328,240 v 0 L -241.178,180.00518 0,180 v -60"
       id="i_93_2"
       data-name="_FF"
       sodipodi:nodetypes="ccccc" />
    <path
       class="linage"
       d="m 256.93617,240.01676 v 0 l 0.37893,-43.3497 -0.006,-16.79997 L 0,180 v -60"
       id="i_93_62"
       data-name="_FFZ"
       sodipodi:nodetypes="cccccc" />
    <path
       class="linage"
       d="m -279.91176,360 v 0 -60 h 36 v -60"
       id="i_61_3"
       data-name="_FZ" />
    <path
       class="linage"
       d="m -206.12915,358.64015 v 0 l -0.0402,-58.67364 93.24798,0.0335 0.34704,-60"
       id="i_61_3-9"
       data-name="_FZ"
       style="fill:none;stroke:#000000;-webkit-tap-highlight-color:rgba(0, 0, 0, 0)"
       sodipodi:nodetypes="ccccc" />
    <path
       class="linage"
       d="m -231.91176,360 v 0 -60 h -12 v -60"
       id="i_61_6"
       data-name="_F" />
    <path
       class="linage"
       d="m -56.655637,356.28929 v 0 -56.33609 L -112.92137,300 l 0.34703,-60"
       id="i_61_6-2"
       data-name="_F"
       style="fill:none;stroke:#000000;-webkit-tap-highlight-color:rgba(0, 0, 0, 0)"
       sodipodi:nodetypes="ccccc" />
    <path
       class="linage"
       d="m 245.80476,360 v 0 -60 h 36 v -60"
       id="i_91_63"
       data-name="_FFZD" />
    <path
       class="linage"
       d="m 293.80476,360 v 0 -60 h -12 v -60"
       id="i_91_66"
       data-name="_FFZS" />
    <path
       class="linage"
       d="m -399.91176,480 v 0 -60 h 180 v -60"
       id="i_59_7"
       data-name="_Z-" />
    <path
       class="linage"
       d="m -351.91176,480 v 0 -60 h 132 v -60"
       id="i_59_10"
       data-name="_Z+" />
    <path
       class="linage"
       d="m -207.91176,480 v 0 -60 h -12 v -60"
       id="i_59_31"
       data-name="_EGO" />
    <path
       class="linage"
       d="m -111.91161,480 v 0 -60 h -108.00015 v -60"
       id="i_59_52"
       data-name="_B+" />
    <path
       class="linage"
       d="m -63.91158,480 v 0 -60 h -156.00018 v -60"
       id="i_59_55"
       data-name="_B-" />
    <path
       class="linage"
       d="m 197.8047,480 v 0 -60 h 108.00006 v -60"
       id="i_89_67"
       data-name="_FFZSD-" />
    <path
       class="linage"
       d="m 245.80476,480 v 0 -60 h 60 v -60"
       id="i_89_70"
       data-name="_FFZSD+" />
    <path
       class="linage"
       d="m 293.80476,480 v 0 -60 h 12 v -60"
       id="i_89_73"
       data-name="_FFZSS" />
    <path
       class="linage"
       d="m 341.80476,480 v 0 -60 h -36 v -60"
       id="i_89_82"
       data-name="_FFZSS+" />
    <path
       class="linage"
       d="m 389.80476,480 v 0 -60 h -84 v -60"
       id="i_89_85"
       data-name="_FFZSS-" />
    <path
       class="linage"
       d="m -399.91176,600 v 0 -60 h 60 v -60"
       id="i_30_11"
       data-name="_Z+D" />
    <path
       class="linage"
       d="m -319.91176,600 v 0 -60 h -20 v -60"
       id="i_30_20"
       data-name="_Z+S" />
    <path
       class="linage"
       d="m -207.91176,600 v 0 -60 h 60.00008 v -60"
       id="i_51_32"
       data-name="_D" />
    <path
       class="linage"
       d="m -127.91164,600 v 0 -60 h -20.00004 v -60"
       id="i_51_41"
       data-name="_S" />
    <path
       class="linage"
       d="m 269.80476,600 v 0 -60 h 36 v -60"
       id="i_81_74"
       data-name="_FFZSSD-" />
    <path
       class="linage"
       d="m 317.80476,600 v 0 -60 h -12 v -60"
       id="i_81_77"
       data-name="_FFZSSD+" />
    <path
       class="linage"
       d="m -423.91176,720 v 0 -60 h 36 v -60"
       id="i_19_12"
       data-name="_Z+DD" />
    <path
       class="linage"
       d="m -375.91176,720 v 0 -60 h -12 v -60"
       id="i_19_15"
       data-name="_Z+DS" />
    <path
       class="linage"
       d="m -327.91176,720 v 0 -60 h 36 v -60"
       id="i_28_21"
       data-name="_Z+SD" />
    <path
       class="linage"
       d="m -279.91176,720 v 0 -60 h -12 v -60"
       id="i_28_24"
       data-name="_Z+SS" />
    <path
       class="linage"
       d="m -231.91176,720 v 0 -60 h 36 v -60"
       id="i_40_33"
       data-name="_DD" />
    <path
       class="linage"
       d="m -183.91175,720 v 0 -60 h -12.00001 v -60"
       id="i_40_36"
       data-name="_DS" />
    <path
       class="linage"
       d="m -135.91165,720 v 0 -60 h 36.000064 v -60"
       id="i_49_42"
       data-name="_SD" />
    <path
       class="linage"
       d="m -87.911583,720 v 0 -60 h -12.000003 v -60"
       id="i_49_45"
       data-name="_SS" />
    <path
       class="marriage"
       id="marriage_7_9_undefined_undefined"
       data-name="_"
       d="m -279.91176,360 h 12 v 0 0 0 0 0 0 0 h 12 v 0" />
    <path
       class="marriage"
       id="marriage_13_15_undefined_undefined"
       data-name="_"
       d="m -399.91176,480 h 12 v 0 0 0 0 0 0 0 h 12 v 0" />
    <path
       class="marriage"
       id="marriage_22_24_undefined_undefined"
       data-name="_"
       d="m -423.91176,720 h 12 v 0 0 0 0 0 0 0 h 12 v 0" />
    <path
       class="marriage"
       id="marriage_25_27_undefined_undefined"
       data-name="_"
       d="m -375.91176,720 h 12 v 0 0 0 0 0 0 0 h 12 v 0" />
    <path
       class="marriage"
       id="marriage_19_21_undefined_undefined"
       data-name="_"
       d="m -399.91176,600 h 12 v 0 0 0 0 0 0 0 h 28 v 0" />
    <path
       class="marriage"
       id="marriage_31_33_undefined_undefined"
       data-name="_"
       d="m -327.91176,720 h 12 v 0 0 0 0 0 0 0 h 12 v 0" />
    <path
       class="marriage"
       id="marriage_34_36_undefined_undefined"
       data-name="_"
       d="m -279.91176,720 h 12 v 0 0 0 0 0 0 0 h 12 v 0" />
    <path
       class="marriage"
       id="marriage_28_30_undefined_undefined"
       data-name="_"
       d="m -319.91176,600 h 12 v 0 0 0 h 16 v 0 0 0 h 12 v 0" />
    <path
       class="marriage"
       id="marriage_16_18_undefined_undefined"
       data-name="_"
       d="m -351.91176,480 h 12 v 0 0 0 0 0 0 0 h 60 v 0" />
    <path
       class="marriage"
       id="marriage_43_45_undefined_undefined"
       data-name="_"
       d="m -231.91176,720 h 12 v 0 0 0 0 0 0 0 h 12 v 0" />
    <path
       class="marriage"
       id="marriage_46_48_undefined_undefined"
       data-name="_"
       d="m -183.91175,720 h 12.00002 v 0 0 0 0 0 0 0 h 12.00003 v 0" />
    <path
       class="marriage"
       id="marriage_40_42_undefined_undefined"
       data-name="_"
       d="m -207.91176,600 h 12 v 0 0 0 0 0 0 0 h 28.00004 v 0" />
    <path
       class="marriage"
       id="marriage_52_54_undefined_undefined"
       data-name="_"
       d="m -135.91165,720 h 12.00002 v 0 0 0 0 0 0 0 h 12.00002 v 0" />
    <path
       class="marriage"
       id="marriage_55_57_undefined_undefined"
       data-name="_"
       d="m -87.911583,720 h 12.000003 v 0 0 0 0 0 0 0 h 12 v 0" />
    <path
       class="marriage"
       id="marriage_49_51_undefined_undefined"
       data-name="_"
       d="m -127.91164,600 h 12.00002 v 0 0 0 h 16.000034 v 0 0 0 h 12.000003 v 0" />
    <path
       class="marriage"
       id="marriage_37_39_undefined_undefined"
       data-name="_"
       d="m -207.91176,480 h 12 v 0 0 0 h 48.00008 v 0 0 0 h 12.00003 v 0" />
    <path
       class="marriage"
       id="marriage_58_60_undefined_undefined"
       data-name="_"
       d="m -111.91161,480 h 12.000024 v 0 0 0 0 0 0 0 h 12.000003 v 0" />
    <path
       class="marriage"
       id="marriage_61_63_undefined_undefined"
       data-name="_"
       d="m -63.91158,480 h 12 v 0 0 0 0 0 0 0 h 12 v 0" />
    <path
       class="marriage"
       id="marriage_10_12_undefined_undefined"
       data-name="_"
       d="m -231.91176,360 h 12 v 0 0 0 0 0 0 0 h 12 v 0" />
    <path
       class="marriage"
       id="marriage_4_6_undefined_undefined"
       data-name="_"
       d="m -255.91176,240 h 12 v 0 0 0 0 0 0 0 h 14.59305 v 0"
       sodipodi:nodetypes="ccccccccccc" />
    <path
       class="marriage"
       id="marriage_67_69_undefined_undefined"
       data-name="_"
       d="m 245.80476,360 h 12 v 0 0 0 0 0 0 0 h 12 v 0" />
    <path
       class="marriage"
       id="marriage_73_75_undefined_undefined"
       data-name="_"
       d="m 197.8047,480 h 12.00003 v 0 0 0 0 0 0 0 h 12.00002 v 0" />
    <path
       class="marriage"
       id="marriage_76_78_undefined_undefined"
       data-name="_"
       d="m 245.80476,480 h 12 v 0 0 0 0 0 0 0 h 12 v 0" />
    <path
       class="marriage"
       id="marriage_82_84_undefined_undefined"
       data-name="_"
       d="m 269.80476,600 h 12 v 0 0 0 0 0 0 0 h 12 v 0" />
    <path
       class="marriage"
       id="marriage_85_87_undefined_undefined"
       data-name="_"
       d="m 317.80476,600 h 12 v 0 0 0 0 0 0 0 h 12 v 0" />
    <path
       class="marriage"
       id="marriage_79_81_undefined_undefined"
       data-name="_"
       d="m 293.80476,480 h 12 v 0 0 0 0 0 0 0 h 12 v 0" />
    <path
       class="marriage"
       id="marriage_88_90_undefined_undefined"
       data-name="_"
       d="m 341.80476,480 h 12 v 0 0 0 0 0 0 0 h 12 v 0" />
    <path
       class="marriage"
       id="marriage_91_93_undefined_undefined"
       data-name="_"
       d="m 389.80476,480 h 12 v 0 0 0 0 0 0 0 h 12 v 0" />
    <path
       class="marriage"
       id="marriage_70_72_undefined_undefined"
       data-name="_"
       d="m 293.80476,360 h 12 v 0 0 0 0 0 0 0 h 12 v 0" />
    <path
       class="marriage"
       id="marriage_64_66_undefined_undefined"
       data-name="_"
       d="m 241.61204,240 v 0 0 l 3.5906,0.0335 2.58772,-0.0196 35.6959,-0.0139 v 0 0 0 h 12 -1.6815"
       sodipodi:nodetypes="ccccccccccc" />
    <path
       class="marriage"
       id="marriage_1_3_undefined_undefined"
       data-name="_"
       d="M-12,120L0,120L0,120L0,120L0,120L0,120L0,120L0,120L0,120L12,120L12,120" />
    <path
       class="marriage"
       id="marriage_95_96"
       data-name="_"
       d="m -132.15295,240 h 12.00001 v 0 0 0 0 0 0 0 h 12.00002 v 0"
       style="fill:none;stroke:#c43030;-webkit-tap-highlight-color:rgba(0, 0, 0, 0)"
       inkscape:label="marriage_95_96" />
    <path
       class="marriage"
       id="marriage_98_99"
       data-name="_"
       d="m 79.486232,240 h 11.999986 v 0 0 0 0 0 0 0 h 12.000002 v 0"
       style="fill:none;stroke:#c43030;-webkit-tap-highlight-color:rgba(0, 0, 0, 0)"
       inkscape:label="marriage_98_99" />
    <rect
       class="clickable"
       x="-22"
       y="113"
       width="20"
       height="15"
       id="node1" />
    <rect
       class="clickable"
       x="-265.91156"
       y="233"
       width="20"
       height="15"
       id="node2" />
    <rect
       class="clickable"
       x="283.80447"
       y="233"
       width="20"
       height="15"
       id="node91" />
    <rect
       class="clickable"
       x="-265.91156"
       y="353"
       width="20"
       height="15"
       id="node5" />
    <rect
       class="clickable"
       x="-241.91156"
       y="353"
       width="20"
       height="15"
       id="node6" />
    <rect
       class="clickable"
       x="-65.1399"
       y="352.5"
       width="20"
       height="15"
       id="node94"
       style="fill:#add8e6;stroke:#000000;-webkit-tap-highlight-color:rgba(0, 0, 0, 0)"
       inkscape:label="MB" />
    <rect
       class="clickable"
       x="-140.15289"
       y="232.5"
       width="20"
       height="15"
       id="node96"
       style="fill:#add8e6;stroke:#000000;-webkit-tap-highlight-color:rgba(0, 0, 0, 0)"
       inkscape:label="node96" />
    <rect
       class="clickable"
       x="259.80447"
       y="353"
       width="20"
       height="15"
       id="node65" />
    <rect
       class="clickable"
       x="283.80447"
       y="353"
       width="20"
       height="15"
       id="node66" />
    <rect
       class="clickable"
       x="-385.91156"
       y="473"
       width="20"
       height="15"
       id="node9" />
    <rect
       class="clickable"
       x="-289.91156"
       y="473"
       width="20"
       height="15"
       id="node30" />
    <rect
       class="clickable"
       x="-217.91156"
       y="473"
       width="20"
       height="15"
       id="node31" />
    <rect
       class="clickable"
       x="-121.91156"
       y="473"
       width="20"
       height="15"
       id="node52" />
    <rect
       class="clickable"
       x="-73.911568"
       y="473"
       width="20"
       height="15"
       id="node55" />
    <rect
       class="clickable"
       x="211.8045"
       y="473"
       width="20"
       height="15"
       id="node69" />
    <rect
       class="clickable"
       x="259.80447"
       y="473"
       width="20"
       height="15"
       id="node72" />
    <rect
       class="clickable"
       x="283.80447"
       y="473"
       width="20"
       height="15"
       id="node73" />
    <rect
       class="clickable"
       x="331.80447"
       y="473"
       width="20"
       height="15"
       id="node82" />
    <rect
       class="clickable"
       x="379.80447"
       y="473"
       width="20"
       height="15"
       id="node85" />
    <rect
       class="clickable"
       x="-369.91156"
       y="593"
       width="20"
       height="15"
       id="node19" />
    <rect
       class="clickable"
       x="-329.91156"
       y="593"
       width="20"
       height="15"
       id="node20" />
    <rect
       class="clickable"
       x="-177.91159"
       y="593"
       width="20"
       height="15"
       id="node40" />
    <rect
       class="clickable"
       x="-137.91158"
       y="593"
       width="20"
       height="15"
       id="node41" />
    <rect
       class="clickable"
       x="283.80447"
       y="593"
       width="20"
       height="15"
       id="node76" />
    <rect
       class="clickable"
       x="331.80447"
       y="593"
       width="20"
       height="15"
       id="node79" />
    <rect
       class="clickable"
       x="-409.91156"
       y="713"
       width="20"
       height="15"
       id="node14" />
    <rect
       class="clickable"
       x="-385.91156"
       y="713"
       width="20"
       height="15"
       id="node15" />
    <rect
       class="clickable"
       x="-313.91156"
       y="713"
       width="20"
       height="15"
       id="node23" />
    <rect
       class="clickable"
       x="-289.91156"
       y="713"
       width="20"
       height="15"
       id="node24" />
    <rect
       class="clickable"
       x="-217.91156"
       y="713"
       width="20"
       height="15"
       id="node35" />
    <rect
       class="clickable"
       x="-193.91158"
       y="713"
       width="20"
       height="15"
       id="node36" />
    <rect
       class="clickable"
       x="-121.91156"
       y="713"
       width="20"
       height="15"
       id="node44" />
    <rect
       class="clickable"
       x="-97.91156"
       y="713"
       width="20"
       height="15"
       id="node45" />
    <circle
       class="clickable"
       cx="12"
       cy="120"
       r="10"
       id="node93" />
    <circle
       class="clickable"
       cx="-228.7917"
       cy="240"
       r="10"
       id="node61" />
    <circle
       class="clickable"
       cx="237.886"
       cy="240"
       r="10"
       id="node62" />
    <circle
       class="clickable"
       cx="-279.91156"
       cy="360"
       r="10"
       id="node3" />
    <circle
       class="clickable"
       cx="-207.91156"
       cy="360"
       r="10"
       id="node59" />
    <circle
       class="clickable"
       cx="106.89476"
       cy="360"
       r="10"
       id="node59-1"
       style="fill:#ffc0cb;stroke:#000000;-webkit-tap-highlight-color:rgba(0, 0, 0, 0)" />
    <circle
       class="clickable"
       cx="245.80447"
       cy="360"
       r="10"
       id="node63" />
    <circle
       class="clickable"
       cx="317.80447"
       cy="360"
       r="10"
       id="node89" />
    <circle
       class="clickable"
       cx="-399.91156"
       cy="480"
       r="10"
       id="node7" />
    <circle
       class="clickable"
       cx="-351.91156"
       cy="480"
       r="10"
       id="node10" />
    <circle
       class="clickable"
       cx="-135.91159"
       cy="480"
       r="10"
       id="node51" />
    <circle
       class="clickable"
       cx="-87.91156"
       cy="480"
       r="10"
       id="node54" />
    <circle
       class="clickable"
       cx="-39.91156"
       cy="480"
       r="10"
       id="node57" />
    <circle
       class="clickable"
       cx="197.80449"
       cy="480"
       r="10"
       id="node67" />
    <circle
       class="clickable"
       cx="245.80447"
       cy="480"
       r="10"
       id="node70" />
    <circle
       class="clickable"
       cx="317.80447"
       cy="480"
       r="10"
       id="node81" />
    <circle
       class="clickable"
       cx="365.80447"
       cy="480"
       r="10"
       id="node84" />
    <circle
       class="clickable"
       cx="413.80447"
       cy="480"
       r="10"
       id="node87" />
    <circle
       class="clickable"
       cx="-399.91156"
       cy="600"
       r="10"
       id="node11" />
    <circle
       class="clickable"
       cx="-279.91156"
       cy="600"
       r="10"
       id="node28" />
    <circle
       class="clickable"
       cx="-207.91156"
       cy="600"
       r="10"
       id="node32" />
    <circle
       class="clickable"
       cx="-87.91156"
       cy="600"
       r="10"
       id="node49" />
    <circle
       class="clickable"
       cx="269.80447"
       cy="600"
       r="10"
       id="node74" />
    <circle
       class="clickable"
       cx="317.80447"
       cy="600"
       r="10"
       id="node77" />
    <circle
       class="clickable"
       cx="-423.91156"
       cy="720"
       r="10"
       id="node12" />
    <circle
       class="clickable"
       cx="-351.91156"
       cy="720"
       r="10"
       id="node17" />
    <circle
       class="clickable"
       cx="-327.91156"
       cy="720"
       r="10"
       id="node21" />
    <circle
       class="clickable"
       cx="-255.91156"
       cy="720"
       r="10"
       id="node26" />
    <circle
       class="clickable"
       cx="-231.91156"
       cy="720"
       r="10"
       id="node33" />
    <circle
       class="clickable"
       cx="-159.91158"
       cy="720"
       r="10"
       id="node38" />
    <circle
       class="clickable"
       cx="-135.91159"
       cy="720"
       r="10"
       id="node42" />
    <circle
       class="clickable"
       cx="-63.91156"
       cy="720"
       r="10"
       id="node47" />
    <circle
       class="clickable"
       cx="-98.759186"
       cy="240"
       r="10"
       id="node95"
       style="fill:#ffc0cb;stroke:#000000;-webkit-tap-highlight-color:rgba(0, 0, 0, 0)"
       inkscape:label="node 95" />
    <text
       id="text1" />
    <text
       text-anchor="middle"
       style="fill: black;"
       x="-13"
       y="120"
       width="20"
       height="7.5"
       id="text2">0 name</text>
    <text
       id="text3" />
    <text
       text-anchor="middle"
       style="fill: black;"
       x="11"
       y="120"
       width="20"
       height="7.5"
       id="text4">0 spouse</text>
    <text
       text-anchor="middle"
       style="fill:#000000"
       x="-256.91156"
       y="240"
       width="20"
       height="7.5"
       id="text5">FF</text>
    <text
       id="text6" />
    <text
       text-anchor="middle"
       style="fill:#000000"
       x="-229.7917"
       y="240"
       width="20"
       height="7.5"
       id="text7">FM</text>
    <text
       text-anchor="middle"
       style="fill:#000000"
       x="236.886"
       y="240"
       width="20"
       height="7.5"
       id="text8">FFZ</text>
    <text
       id="text9" />
    <text
       text-anchor="middle"
       style="fill:#000000"
       x="292.80447"
       y="240"
       width="20"
       height="7.5"
       id="text10">FFZH</text>
    <text
       text-anchor="middle"
       style="fill:#000000"
       x="-280.91156"
       y="360"
       width="20"
       height="7.5"
       id="text11">FZ</text>
    <text
       id="text12" />
    <text
       text-anchor="middle"
       style="fill:#000000"
       x="-256.91156"
       y="360"
       width="20"
       height="7.5"
       id="text13">FZH</text>
    <text
       text-anchor="middle"
       style="fill:#000000"
       x="-232.91156"
       y="360"
       width="20"
       height="7.5"
       id="text14">F</text>
    <text
       id="text15" />
    <text
       text-anchor="middle"
       style="fill:#000000"
       x="-208.91156"
       y="360"
       width="20"
       height="7.5"
       id="text16">M</text>
    <text
       text-anchor="middle"
       style="fill:#000000"
       x="244.80447"
       y="360"
       width="20"
       height="7.5"
       id="text17">FFZD</text>
    <text
       id="text18" />
    <text
       text-anchor="middle"
       style="fill:#000000"
       x="268.80447"
       y="360"
       width="20"
       height="7.5"
       id="text19">FFZDH</text>
    <text
       text-anchor="middle"
       style="fill:#000000"
       x="292.80447"
       y="360"
       width="20"
       height="7.5"
       id="text20">FFZS</text>
    <text
       id="text21" />
    <text
       text-anchor="middle"
       style="fill:#000000"
       x="316.80447"
       y="360"
       width="20"
       height="7.5"
       id="text22">FFZSW</text>
    <text
       text-anchor="middle"
       style="fill:#000000"
       x="-400.91156"
       y="480"
       width="20"
       height="7.5"
       id="text23">Z-</text>
    <text
       id="text24" />
    <text
       text-anchor="middle"
       style="fill:#000000"
       x="-376.91156"
       y="480"
       width="20"
       height="7.5"
       id="text25">Z-H</text>
    <text
       text-anchor="middle"
       style="fill:#000000"
       x="-352.91156"
       y="480"
       width="20"
       height="7.5"
       id="text26">Z+</text>
    <text
       id="text27" />
    <text
       text-anchor="middle"
       style="fill:#000000"
       x="-280.91156"
       y="480"
       width="20"
       height="7.5"
       id="text28">Z+H</text>
    <text
       text-anchor="middle"
       style="fill:#000000"
       x="-208.91156"
       y="480"
       width="20"
       height="7.5"
       id="text29">EGO</text>
    <text
       id="text30" />
    <text
       text-anchor="middle"
       style="fill:#000000"
       x="-136.91159"
       y="480"
       width="20"
       height="7.5"
       id="text31">W</text>
    <text
       text-anchor="middle"
       style="fill:#000000"
       x="-112.91156"
       y="480"
       width="20"
       height="7.5"
       id="text32">B+</text>
    <text
       id="text33" />
    <text
       text-anchor="middle"
       style="fill:#000000"
       x="-88.91156"
       y="480"
       width="20"
       height="7.5"
       id="text34">B+W</text>
    <text
       text-anchor="middle"
       style="fill:#000000"
       x="-64.91156"
       y="480"
       width="20"
       height="7.5"
       id="text35">B-</text>
    <text
       id="text36" />
    <text
       text-anchor="middle"
       style="fill:#000000"
       x="-40.91156"
       y="480"
       width="20"
       height="7.5"
       id="text37">B-W</text>
    <text
       text-anchor="middle"
       style="fill:#000000"
       x="196.80449"
       y="480"
       width="20"
       height="7.5"
       id="text38">FFZSD-</text>
    <text
       id="text39" />
    <text
       text-anchor="middle"
       style="fill:#000000"
       x="220.80449"
       y="480"
       width="20"
       height="7.5"
       id="text40">FFZSD-H</text>
    <text
       text-anchor="middle"
       style="fill:#000000"
       x="244.80447"
       y="480"
       width="20"
       height="7.5"
       id="text41">FFZSD+</text>
    <text
       id="text42" />
    <text
       text-anchor="middle"
       style="fill:#000000"
       x="268.80447"
       y="480"
       width="20"
       height="7.5"
       id="text43">FFZSD+H</text>
    <text
       text-anchor="middle"
       style="fill:#000000"
       x="292.80447"
       y="480"
       width="20"
       height="7.5"
       id="text44">FFZSS</text>
    <text
       id="text45" />
    <text
       text-anchor="middle"
       style="fill:#000000"
       x="316.80447"
       y="480"
       width="20"
       height="7.5"
       id="text46">FFZSSW</text>
    <text
       text-anchor="middle"
       style="fill:#000000"
       x="340.80447"
       y="480"
       width="20"
       height="7.5"
       id="text47">FFZSS+</text>
    <text
       id="text48" />
    <text
       text-anchor="middle"
       style="fill:#000000"
       x="364.80447"
       y="480"
       width="20"
       height="7.5"
       id="text49">FFZSS+W</text>
    <text
       text-anchor="middle"
       style="fill:#000000"
       x="388.80447"
       y="480"
       width="20"
       height="7.5"
       id="text50">FFZSS-</text>
    <text
       id="text51" />
    <text
       text-anchor="middle"
       style="fill:#000000"
       x="412.80447"
       y="480"
       width="20"
       height="7.5"
       id="text52">FFZSS-W</text>
    <text
       text-anchor="middle"
       style="fill:#000000"
       x="-400.91156"
       y="600"
       width="20"
       height="7.5"
       id="text53">Z+D</text>
    <text
       id="text54" />
    <text
       text-anchor="middle"
       style="fill:#000000"
       x="-360.91156"
       y="600"
       width="20"
       height="7.5"
       id="text55">Z+DH</text>
    <text
       text-anchor="middle"
       style="fill:#000000"
       x="-320.91156"
       y="600"
       width="20"
       height="7.5"
       id="text56">Z+S</text>
    <text
       id="text57" />
    <text
       text-anchor="middle"
       style="fill:#000000"
       x="-280.91156"
       y="600"
       width="20"
       height="7.5"
       id="text58">Z+SW</text>
    <text
       text-anchor="middle"
       style="fill:#000000"
       x="-208.91156"
       y="600"
       width="20"
       height="7.5"
       id="text59">D</text>
    <text
       id="text60" />
    <text
       text-anchor="middle"
       style="fill:#000000"
       x="-168.91159"
       y="600"
       width="20"
       height="7.5"
       id="text61">Z+SH</text>
    <text
       text-anchor="middle"
       style="fill:#000000"
       x="-128.91159"
       y="600"
       width="20"
       height="7.5"
       id="text62">S</text>
    <text
       id="text63" />
    <text
       text-anchor="middle"
       style="fill:#000000"
       x="-88.91156"
       y="600"
       width="20"
       height="7.5"
       id="text64">SW</text>
    <text
       text-anchor="middle"
       style="fill:#000000"
       x="268.80447"
       y="600"
       width="20"
       height="7.5"
       id="text65">FFZSSD-</text>
    <text
       id="text66" />
    <text
       text-anchor="middle"
       style="fill:#000000"
       x="292.80447"
       y="600"
       width="20"
       height="7.5"
       id="text67">FFZSSD-H</text>
    <text
       text-anchor="middle"
       style="fill:#000000"
       x="316.80447"
       y="600"
       width="20"
       height="7.5"
       id="text68">FFZSSD+</text>
    <text
       id="text69" />
    <text
       text-anchor="middle"
       style="fill:#000000"
       x="340.80447"
       y="600"
       width="20"
       height="7.5"
       id="text70">FFZSSD+H</text>
    <text
       text-anchor="middle"
       style="fill:#000000"
       x="-424.91156"
       y="720"
       width="20"
       height="7.5"
       id="text71">Z+DD</text>
    <text
       id="text72" />
    <text
       text-anchor="middle"
       style="fill:#000000"
       x="-400.91156"
       y="720"
       width="20"
       height="7.5"
       id="text73">Z+DDH</text>
    <text
       text-anchor="middle"
       style="fill:#000000"
       x="-376.91156"
       y="720"
       width="20"
       height="7.5"
       id="text74">Z+DS</text>
    <text
       id="text75" />
    <text
       text-anchor="middle"
       style="fill:#000000"
       x="-352.91156"
       y="720"
       width="20"
       height="7.5"
       id="text76">Z+DSW</text>
    <text
       text-anchor="middle"
       style="fill:#000000"
       x="-328.91156"
       y="720"
       width="20"
       height="7.5"
       id="text77">Z+SD</text>
    <text
       id="text78" />
    <text
       text-anchor="middle"
       style="fill:#000000"
       x="-304.91156"
       y="720"
       width="20"
       height="7.5"
       id="text79">Z+SDH</text>
    <text
       text-anchor="middle"
       style="fill:#000000"
       x="-280.91156"
       y="720"
       width="20"
       height="7.5"
       id="text80">Z+SS</text>
    <text
       id="text81" />
    <text
       text-anchor="middle"
       style="fill:#000000"
       x="-256.91156"
       y="720"
       width="20"
       height="7.5"
       id="text82">Z+SSW</text>
    <text
       text-anchor="middle"
       style="fill:#000000"
       x="-232.91156"
       y="720"
       width="20"
       height="7.5"
       id="text83">DD</text>
    <text
       id="text84" />
    <text
       text-anchor="middle"
       style="fill:#000000"
       x="-208.91156"
       y="720"
       width="20"
       height="7.5"
       id="text85">DDH</text>
    <text
       text-anchor="middle"
       style="fill:#000000"
       x="-184.91158"
       y="720"
       width="20"
       height="7.5"
       id="text86">DS</text>
    <text
       id="text87" />
    <text
       text-anchor="middle"
       style="fill:#000000"
       x="-160.91158"
       y="720"
       width="20"
       height="7.5"
       id="text88">DSW</text>
    <text
       text-anchor="middle"
       style="fill:#000000"
       x="-136.91159"
       y="720"
       width="20"
       height="7.5"
       id="text89">SD</text>
    <text
       id="text90" />
    <text
       text-anchor="middle"
       style="fill:#000000"
       x="-112.91156"
       y="720"
       width="20"
       height="7.5"
       id="text91">SDH</text>
    <text
       text-anchor="middle"
       style="fill:#000000"
       x="-88.91156"
       y="720"
       width="20"
       height="7.5"
       id="text92">SS</text>
    <text
       id="text93" />
    <text
       text-anchor="middle"
       style="fill:#000000"
       x="-64.91156"
       y="720"
       width="20"
       height="7.5"
       id="text94">SSW</text>
    <rect
       class="clickable"
       x="-210.2103"
       y="232.62323"
       width="20"
       height="15"
       id="fode61" />
    <rect
       class="clickable"
       x="-235.0575"
       y="274.73032"
       width="20"
       height="15"
       id="node94-8"
       style="fill:#add8e6;stroke:#000000;-webkit-tap-highlight-color:rgba(0, 0, 0, 0)"
       inkscape:label="MB" />
    <circle
       class="clickable"
       cx="-161.54659"
       cy="240"
       r="10"
       id="node97"
       style="fill:#ffc0cb;stroke:#000000;-webkit-tap-highlight-color:rgba(0, 0, 0, 0)"
       inkscape:label="node97" />
    <rect
       class="clickable"
       x="59.971497"
       y="232.5"
       width="20"
       height="15"
       id="node98"
       style="fill:#add8e6;stroke:#000000;-webkit-tap-highlight-color:rgba(0, 0, 0, 0)"
       inkscape:label="node98" />
    <circle
       class="clickable"
       cx="107.48621"
       cy="240"
       r="10"
       id="node99"
       style="fill:#ffc0cb;stroke:#000000;-webkit-tap-highlight-color:rgba(0, 0, 0, 0)" />
    <path
       class="linage"
       d="m 106.89479,350 v 0 l -0.0402,-50.5439 -18.832496,0.0468 0.34703,-60.00001"
       id="i_61_6-2-1"
       data-name="_F"
       style="fill:none;stroke:#000000;-webkit-tap-highlight-color:rgba(0, 0, 0, 0)"
       sodipodi:nodetypes="ccccc" />
    <circle
       class="clickable"
       cx="-388.7446"
       cy="240.5"
       r="10"
       id="node97-7"
       style="fill:#ffc0cb;stroke:#000000;-webkit-tap-highlight-color:rgba(0, 0, 0, 0)"
       inkscape:label="node97" />
    <circle
       class="clickable"
       cx="-353.74554"
       cy="360.5"
       r="10"
       id="node97-3"
       style="fill:#ffc0cb;stroke:#000000;-webkit-tap-highlight-color:rgba(0, 0, 0, 0)"
       inkscape:label="node97" />
    <path
       class="linage"
       d="m 68.550843,352.5918 v 0 -52.83485 l 19.471211,-0.25406 0.34703,-60"
       id="i_61_3-9-3"
       data-name="_FZ"
       style="fill:none;stroke:#000000;-webkit-tap-highlight-color:rgba(0, 0, 0, 0)"
       sodipodi:nodetypes="ccccc" />
    <rect
       class="clickable"
       x="58.550827"
       y="352.5918"
       width="20"
       height="15"
       id="fode61-4"
       style="fill:#add8e6;stroke:#000000;-webkit-tap-highlight-color:rgba(0, 0, 0, 0)" />
    <path
       class="marriage"
       id="marriage_64_66_undefined_undefined-3"
       data-name="_"
       d="m -378.7448,240.5 v 0 0 0 0 l 81.97068,-0.0599 v 0 0 0 0 0"
       sodipodi:nodetypes="ccccccccccc"
       style="fill:none;stroke:#c43030;-webkit-tap-highlight-color:rgba(0, 0, 0, 0)" />
    <path
       class="linage"
       d="m -353.74574,353.7698 v 0 l 0.21033,-53.8424 h 36 v -60"
       id="i_61_3-0"
       data-name="_FZ"
       style="fill:none;stroke:#000000;-webkit-tap-highlight-color:rgba(0, 0, 0, 0)"
       sodipodi:nodetypes="ccccc" />
    <circle
       class="clickable"
       cx="-2.414856"
       cy="360.0918"
       r="10"
       id="node99-3"
       style="fill:#ffc0cb;stroke:#000000;-webkit-tap-highlight-color:rgba(0, 0, 0, 0)" />
    <path
       class="marriage"
       id="marriage_95_96-7"
       data-name="_"
       d="m -49.498412,359.5918 h 11.999981 v 0 0 0 0 0 0 0 h 28.6255153 v 0"
       style="fill:none;stroke:#c43030;-webkit-tap-highlight-color:rgba(0, 0, 0, 0)"
       inkscape:label="marriage_95_96"
       sodipodi:nodetypes="ccccccccccc" />
    <path
       class="linage"
       d="m 20.829079,472.5 v 0 l -0.3025,-52.5 -35.626483,0.0808 0.07459,-60.98896"
       id="i_61_6-2-2"
       data-name="_F"
       style="fill:none;stroke:#000000;-webkit-tap-highlight-color:rgba(0, 0, 0, 0)"
       sodipodi:nodetypes="ccccc" />
    <path
       class="linage"
       d="m -18.216227,472.50288 v 0 l -0.189464,-52.43828 3.305787,0.0162 0.07459,-60.98896"
       id="i_61_3-9-3-2"
       data-name="_FZ"
       style="fill:none;stroke:#000000;-webkit-tap-highlight-color:rgba(0, 0, 0, 0)"
       sodipodi:nodetypes="ccccc" />
    <rect
       class="clickable"
       x="-22.914856"
       y="472.5"
       width="20"
       height="15"
       id="fode61-4-6"
       style="fill:#add8e6;stroke:#000000;-webkit-tap-highlight-color:rgba(0, 0, 0, 0)" />
    <circle
       class="clickable"
       cx="21.54377"
       cy="480"
       r="10"
       id="node59-1-8"
       style="fill:#ffc0cb;stroke:#000000;-webkit-tap-highlight-color:rgba(0, 0, 0, 0)" />
    <path
       class="linage"
       d="m 84.493268,473.5001 v 0 l -0.3025,-52.5 -33.007741,0.0474 0.01546,-60.55026"
       id="i_61_6-2-2-4"
       data-name="_F"
       style="fill:none;stroke:#000000;-webkit-tap-highlight-color:rgba(0, 0, 0, 0)"
       sodipodi:nodetypes="ccccc" />
    <path
       class="linage"
       d="m 45.447958,473.50298 v 0 l -0.189464,-52.43828 5.924533,-0.0172 0.01547,-60.55029"
       id="i_61_3-9-3-2-8"
       data-name="_FZ"
       style="fill:none;stroke:#000000;-webkit-tap-highlight-color:rgba(0, 0, 0, 0)"
       sodipodi:nodetypes="ccccc" />
    <rect
       class="clickable"
       x="40.749329"
       y="473.50009"
       width="20"
       height="15"
       id="fode61-4-6-9"
       style="fill:#add8e6;stroke:#000000;-webkit-tap-highlight-color:rgba(0, 0, 0, 0)" />
    <circle
       class="clickable"
       cx="85.207954"
       cy="481.00009"
       r="10"
       id="node59-1-8-0"
       style="fill:#ffc0cb;stroke:#000000;-webkit-tap-highlight-color:rgba(0, 0, 0, 0)" />
    <circle
       class="clickable"
       cx="30.206894"
       cy="360.99722"
       r="10"
       id="node95-3"
       style="fill:#ffc0cb;stroke:#000000;-webkit-tap-highlight-color:rgba(0, 0, 0, 0)"
       inkscape:label="node 95" />
    <path
       class="marriage"
       id="marriage_95_96-7-2"
       data-name="_"
       d="m 38.090927,360.99721 v 0 0 0 0 0 0 0 0 l 24.189444,0 v 0"
       style="fill:none;stroke:#c43030;-webkit-tap-highlight-color:rgba(0, 0, 0, 0)"
       inkscape:label="marriage_95_96"
       sodipodi:nodetypes="ccccccccccc" />
    <rect
       class="clickable"
       x="141.98532"
       y="352.5"
       width="20"
       height="15"
       id="node96-7"
       style="fill:#add8e6;stroke:#000000;-webkit-tap-highlight-color:rgba(0, 0, 0, 0)"
       inkscape:label="node96" />
    <path
       class="marriage"
       id="marriage_98_99-2"
       data-name="_"
       d="m 110.94695,360.48276 26.40195,0.0144 v 0 0 0 0 0 0 0 h 6.71868 v 0"
       style="fill:none;stroke:#c43030;-webkit-tap-highlight-color:rgba(0, 0, 0, 0)"
       inkscape:label="marriage_98_99"
       sodipodi:nodetypes="ccccccccccc" />
    <circle
       class="clickable"
       cx="152.75743"
       cy="480.49713"
       r="10"
       id="node59-1-5"
       style="fill:#ffc0cb;stroke:#000000;-webkit-tap-highlight-color:rgba(0, 0, 0, 0)" />
    <path
       class="linage"
       d="m 152.75747,470.49711 v 0 l -0.0402,-50.5439 -18.8325,0.0468 L 134.2318,360"
       id="i_61_6-2-1-4"
       data-name="_F"
       style="fill:none;stroke:#000000;-webkit-tap-highlight-color:rgba(0, 0, 0, 0)"
       sodipodi:nodetypes="ccccc" />
    <path
       class="linage"
       d="m 114.41352,473.08891 v 0 -52.83485 L 133.88473,420 l 0.34703,-60"
       id="i_61_3-9-3-28"
       data-name="_FZ"
       style="fill:none;stroke:#000000;-webkit-tap-highlight-color:rgba(0, 0, 0, 0)"
       sodipodi:nodetypes="ccccc" />
    <rect
       class="clickable"
       x="104.41352"
       y="473.08893"
       width="20"
       height="15"
       id="fode61-4-4"
       style="fill:#add8e6;stroke:#000000;-webkit-tap-highlight-color:rgba(0, 0, 0, 0)" />
    <rect
       class="clickable"
       x="-299.41177"
       y="232.9274"
       width="20"
       height="15"
       id="fode61-6"
       style="fill:#add8e6;stroke:#000000;-webkit-tap-highlight-color:rgba(0, 0, 0, 0)" />
  </g>
</svg>
