<?xml version="1.0" encoding="UTF-8" standalone="no"?>
<svg viewBox="0,0,1200,1600" style="touch-action: none; -webkit-tap-highlight-color: rgba(0, 0, 0, 0);" id="familyTree">
    <style
     id="style1">
        @import url(./style.css);
    </style>
    <g transform="translate(614.3135248131508,-113.0695466604858) scale(1.3195079107728946)">
        <path class="linage" d="M-168,240L-168,240L-168,180L0,180L0,120" id="i_93_2" data-name="_FF"></path>
        <path class="linage" d="M55.99999999999998,240L55.99999999999998,240L55.99999999999998,180L0,180L0,120"
            id="i_93_62" data-name="_FFZ"></path>
        <path class="linage"
            d="M-192.00000000000003,360L-192.00000000000003,360L-192.00000000000003,300L-156,300L-156,240" id="i_61_3"
            data-name="_FZ"></path>
        <path class="linage"
            d="M-144.00000000000003,360L-144.00000000000003,360L-144.00000000000003,300L-156,300L-156,240" id="i_61_6"
            data-name="_F"></path>
        <path class="linage"
            d="M119.99999999999993,360L119.99999999999993,360L119.99999999999993,300L155.99999999999994,300L155.99999999999994,240"
            id="i_91_63" data-name="_FFZD"></path>
        <path class="linage"
            d="M167.99999999999994,360L167.99999999999994,360L167.99999999999994,300L155.99999999999994,300L155.99999999999994,240"
            id="i_91_66" data-name="_FFZS"></path>
        <path class="linage" d="M-312,480L-312,480L-312,420L-132.00000000000003,420L-132.00000000000003,360" id="i_59_7"
            data-name="_Z-"></path>
        <path class="linage"
            d="M-264.00000000000006,480L-264.00000000000006,480L-264.00000000000006,420L-132.00000000000003,420L-132.00000000000003,360"
            id="i_59_10" data-name="_Z+"></path>
        <path class="linage"
            d="M-120.00000000000003,480L-120.00000000000003,480L-120.00000000000003,420L-132.00000000000003,420L-132.00000000000003,360"
            id="i_59_31" data-name="_EGO"></path>
        <path class="linage"
            d="M-24.000000000000092,480L-24.000000000000092,480L-24.000000000000092,420L-132.00000000000003,420L-132.00000000000003,360"
            id="i_59_52" data-name="_B+"></path>
        <path class="linage"
            d="M23.999999999999915,480L23.999999999999915,480L23.999999999999915,420L-132.00000000000003,420L-132.00000000000003,360"
            id="i_59_55" data-name="_B-"></path>
        <path class="linage"
            d="M71.99999999999996,480L71.99999999999996,480L71.99999999999996,420L179.99999999999994,420L179.99999999999994,360"
            id="i_89_67" data-name="_FFZSD-"></path>
        <path class="linage"
            d="M119.99999999999997,480L119.99999999999997,480L119.99999999999997,420L179.99999999999994,420L179.99999999999994,360"
            id="i_89_70" data-name="_FFZSD+"></path>
        <path class="linage"
            d="M167.99999999999997,480L167.99999999999997,480L167.99999999999997,420L179.99999999999994,420L179.99999999999994,360"
            id="i_89_73" data-name="_FFZSS"></path>
        <path class="linage"
            d="M215.99999999999994,480L215.99999999999994,480L215.99999999999994,420L179.99999999999994,420L179.99999999999994,360"
            id="i_89_82" data-name="_FFZSS+"></path>
        <path class="linage"
            d="M263.9999999999999,480L263.9999999999999,480L263.9999999999999,420L179.99999999999994,420L179.99999999999994,360"
            id="i_89_85" data-name="_FFZSS-"></path>
        <path class="linage" d="M-312,600L-312,600L-312,540L-252.00000000000003,540L-252.00000000000003,480"
            id="i_30_11" data-name="_Z+D"></path>
        <path class="linage"
            d="M-232.00000000000003,600L-232.00000000000003,600L-232.00000000000003,540L-252.00000000000003,540L-252.00000000000003,480"
            id="i_30_20" data-name="_Z+S"></path>
        <path class="linage"
            d="M-120.00000000000003,600L-120.00000000000003,600L-120.00000000000003,540L-60.00000000000007,540L-60.00000000000007,480"
            id="i_51_32" data-name="_D"></path>
        <path class="linage"
            d="M-40.000000000000036,600L-40.000000000000036,600L-40.000000000000036,540L-60.00000000000007,540L-60.00000000000007,480"
            id="i_51_41" data-name="_S"></path>
        <path class="linage"
            d="M143.99999999999994,600L143.99999999999994,600L143.99999999999994,540L179.99999999999994,540L179.99999999999994,480"
            id="i_81_74" data-name="_FFZSSD-"></path>
        <path class="linage"
            d="M191.99999999999994,600L191.99999999999994,600L191.99999999999994,540L179.99999999999994,540L179.99999999999994,480"
            id="i_81_77" data-name="_FFZSSD+"></path>
        <path class="linage" d="M-336,720L-336,720L-336,660L-300.00000000000006,660L-300.00000000000006,600"
            id="i_19_12" data-name="_Z+DD"></path>
        <path class="linage" d="M-288,720L-288,720L-288,660L-300.00000000000006,660L-300.00000000000006,600"
            id="i_19_15" data-name="_Z+DS"></path>
        <path class="linage"
            d="M-240.00000000000003,720L-240.00000000000003,720L-240.00000000000003,660L-204.00000000000003,660L-204.00000000000003,600"
            id="i_28_21" data-name="_Z+SD"></path>
        <path class="linage"
            d="M-192.00000000000003,720L-192.00000000000003,720L-192.00000000000003,660L-204.00000000000003,660L-204.00000000000003,600"
            id="i_28_24" data-name="_Z+SS"></path>
        <path class="linage"
            d="M-144.00000000000003,720L-144.00000000000003,720L-144.00000000000003,660L-108.00000000000003,660L-108.00000000000003,600"
            id="i_40_33" data-name="_DD"></path>
        <path class="linage"
            d="M-96.00000000000006,720L-96.00000000000006,720L-96.00000000000006,660L-108.00000000000003,660L-108.00000000000003,600"
            id="i_40_36" data-name="_DS"></path>
        <path class="linage"
            d="M-48.00000000000004,720L-48.00000000000004,720L-48.00000000000004,660L-12.000000000000028,660L-12.000000000000028,600"
            id="i_49_42" data-name="_SD"></path>
        <path class="linage"
            d="M-4.440892098500626e-14,720L-4.440892098500626e-14,720L-4.440892098500626e-14,660L-12.000000000000028,660L-12.000000000000028,600"
            id="i_49_45" data-name="_SS"></path>
        <path class="marriage" id="marriage_7_9_undefined_undefined" data-name="_"
            d="M-192.00000000000003,360L-180,360L-180,360L-180,360L-180,360L-180.00000000000003,360L-180.00000000000003,360L-180.00000000000003,360L-180.00000000000003,360L-168.00000000000006,360L-168.00000000000006,360">
        </path>
        <path class="marriage" id="marriage_13_15_undefined_undefined" data-name="_"
            d="M-312,480L-300,480L-300,480L-300,480L-300,480L-300.00000000000006,480L-300.00000000000006,480L-300.00000000000006,480L-300.00000000000006,480L-288.00000000000006,480L-288.00000000000006,480">
        </path>
        <path class="marriage" id="marriage_22_24_undefined_undefined" data-name="_"
            d="M-336,720L-324,720L-324,720L-324,720L-324,720L-324,720L-324,720L-324,720L-324,720L-312,720L-312,720">
        </path>
        <path class="marriage" id="marriage_25_27_undefined_undefined" data-name="_"
            d="M-288,720L-276,720L-276,720L-276,720L-276,720L-276,720L-276,720L-276,720L-276,720L-264,720L-264,720">
        </path>
        <path class="marriage" id="marriage_19_21_undefined_undefined" data-name="_"
            d="M-312,600L-300,600L-300,600L-300,600L-300,600L-300.00000000000006,600L-300.00000000000006,600L-300.00000000000006,600L-300.00000000000006,600L-272,600L-272,600">
        </path>
        <path class="marriage" id="marriage_31_33_undefined_undefined" data-name="_"
            d="M-240.00000000000003,720L-228,720L-228,720L-228,720L-228,720L-228.00000000000006,720L-228.00000000000006,720L-228.00000000000006,720L-228.00000000000006,720L-216.00000000000006,720L-216.00000000000006,720">
        </path>
        <path class="marriage" id="marriage_34_36_undefined_undefined" data-name="_"
            d="M-192.00000000000003,720L-180,720L-180,720L-180,720L-180,720L-180.00000000000003,720L-180.00000000000003,720L-180.00000000000003,720L-180.00000000000003,720L-168.00000000000006,720L-168.00000000000006,720">
        </path>
        <path class="marriage" id="marriage_28_30_undefined_undefined" data-name="_"
            d="M-232.00000000000003,600L-220,600L-220,600L-220,600L-220,600L-204.00000000000003,600L-204.00000000000003,600L-204.00000000000003,600L-204.00000000000003,600L-192.00000000000003,600L-192.00000000000003,600">
        </path>
        <path class="marriage" id="marriage_16_18_undefined_undefined" data-name="_"
            d="M-264.00000000000006,480L-252,480L-252,480L-252,480L-252,480L-252.00000000000003,480L-252.00000000000003,480L-252.00000000000003,480L-252.00000000000003,480L-192.00000000000003,480L-192.00000000000003,480">
        </path>
        <path class="marriage" id="marriage_43_45_undefined_undefined" data-name="_"
            d="M-144.00000000000003,720L-132,720L-132,720L-132,720L-132,720L-132.00000000000006,720L-132.00000000000006,720L-132.00000000000006,720L-132.00000000000006,720L-120.00000000000003,720L-120.00000000000003,720">
        </path>
        <path class="marriage" id="marriage_46_48_undefined_undefined" data-name="_"
            d="M-96.00000000000006,720L-84,720L-84,720L-84,720L-84,720L-84.00000000000004,720L-84.00000000000004,720L-84.00000000000004,720L-84.00000000000004,720L-72.00000000000004,720L-72.00000000000004,720">
        </path>
        <path class="marriage" id="marriage_40_42_undefined_undefined" data-name="_"
            d="M-120.00000000000003,600L-108,600L-108,600L-108,600L-108,600L-108.00000000000003,600L-108.00000000000003,600L-108.00000000000003,600L-108.00000000000003,600L-80.00000000000003,600L-80.00000000000003,600">
        </path>
        <path class="marriage" id="marriage_52_54_undefined_undefined" data-name="_"
            d="M-48.00000000000004,720L-36,720L-36,720L-36,720L-36,720L-36.00000000000004,720L-36.00000000000004,720L-36.00000000000004,720L-36.00000000000004,720L-24.000000000000043,720L-24.000000000000043,720">
        </path>
        <path class="marriage" id="marriage_55_57_undefined_undefined" data-name="_"
            d="M-4.440892098500626e-14,720L12,720L12,720L12,720L12,720L11.999999999999957,720L11.999999999999957,720L11.999999999999957,720L11.999999999999957,720L23.999999999999957,720L23.999999999999957,720">
        </path>
        <path class="marriage" id="marriage_49_51_undefined_undefined" data-name="_"
            d="M-40.000000000000036,600L-28,600L-28,600L-28,600L-28,600L-12.000000000000028,600L-12.000000000000028,600L-12.000000000000028,600L-12.000000000000028,600L-3.552713678800501e-14,600L-3.552713678800501e-14,600">
        </path>
        <path class="marriage" id="marriage_37_39_undefined_undefined" data-name="_"
            d="M-120.00000000000003,480L-108,480L-108,480L-108,480L-108,480L-60.00000000000007,480L-60.00000000000007,480L-60.00000000000007,480L-60.00000000000007,480L-48.00000000000008,480L-48.00000000000008,480">
        </path>
        <path class="marriage" id="marriage_58_60_undefined_undefined" data-name="_"
            d="M-24.000000000000092,480L-12,480L-12,480L-12,480L-12,480L-12.0000000000001,480L-12.0000000000001,480L-12.0000000000001,480L-12.0000000000001,480L-1.0658141036401503e-13,480L-1.0658141036401503e-13,480">
        </path>
        <path class="marriage" id="marriage_61_63_undefined_undefined" data-name="_"
            d="M23.999999999999915,480L36,480L36,480L36,480L36,480L35.99999999999994,480L35.99999999999994,480L35.99999999999994,480L35.99999999999994,480L47.99999999999997,480L47.99999999999997,480">
        </path>
        <path class="marriage" id="marriage_10_12_undefined_undefined" data-name="_"
            d="M-144.00000000000003,360L-132,360L-132,360L-132,360L-132,360L-132.00000000000003,360L-132.00000000000003,360L-132.00000000000003,360L-132.00000000000003,360L-120.00000000000003,360L-120.00000000000003,360">
        </path>
        <path class="marriage" id="marriage_4_6_undefined_undefined" data-name="_"
            d="M-168,240L-156,240L-156,240L-156,240L-156,240L-156,240L-156,240L-156,240L-156,240L-56.000000000000014,240L-56.000000000000014,240">
        </path>
        <path class="marriage" id="marriage_67_69_undefined_undefined" data-name="_"
            d="M119.99999999999993,360L132,360L132,360L132,360L132,360L131.99999999999991,360L131.99999999999991,360L131.99999999999991,360L131.99999999999991,360L143.99999999999994,360L143.99999999999994,360">
        </path>
        <path class="marriage" id="marriage_73_75_undefined_undefined" data-name="_"
            d="M71.99999999999996,480L84,480L84,480L84,480L84,480L83.99999999999994,480L83.99999999999994,480L83.99999999999994,480L83.99999999999994,480L95.99999999999996,480L95.99999999999996,480">
        </path>
        <path class="marriage" id="marriage_76_78_undefined_undefined" data-name="_"
            d="M119.99999999999997,480L132,480L132,480L132,480L132,480L131.99999999999994,480L131.99999999999994,480L131.99999999999994,480L131.99999999999994,480L143.99999999999994,480L143.99999999999994,480">
        </path>
        <path class="marriage" id="marriage_82_84_undefined_undefined" data-name="_"
            d="M143.99999999999994,600L156,600L156,600L156,600L156,600L155.99999999999994,600L155.99999999999994,600L155.99999999999994,600L155.99999999999994,600L167.99999999999994,600L167.99999999999994,600">
        </path>
        <path class="marriage" id="marriage_85_87_undefined_undefined" data-name="_"
            d="M191.99999999999994,600L204,600L204,600L204,600L204,600L203.99999999999994,600L203.99999999999994,600L203.99999999999994,600L203.99999999999994,600L215.99999999999994,600L215.99999999999994,600">
        </path>
        <path class="marriage" id="marriage_79_81_undefined_undefined" data-name="_"
            d="M167.99999999999997,480L180,480L180,480L180,480L180,480L179.99999999999994,480L179.99999999999994,480L179.99999999999994,480L179.99999999999994,480L191.99999999999994,480L191.99999999999994,480">
        </path>
        <path class="marriage" id="marriage_88_90_undefined_undefined" data-name="_"
            d="M215.99999999999994,480L228,480L228,480L228,480L228,480L227.99999999999994,480L227.99999999999994,480L227.99999999999994,480L227.99999999999994,480L239.99999999999994,480L239.99999999999994,480">
        </path>
        <path class="marriage" id="marriage_91_93_undefined_undefined" data-name="_"
            d="M263.9999999999999,480L276,480L276,480L276,480L276,480L275.9999999999999,480L275.9999999999999,480L275.9999999999999,480L275.9999999999999,480L287.9999999999999,480L287.9999999999999,480">
        </path>
        <path class="marriage" id="marriage_70_72_undefined_undefined" data-name="_"
            d="M167.99999999999994,360L180,360L180,360L180,360L180,360L179.99999999999994,360L179.99999999999994,360L179.99999999999994,360L179.99999999999994,360L191.99999999999991,360L191.99999999999991,360">
        </path>
        <path class="marriage" id="marriage_64_66_undefined_undefined" data-name="_"
            d="M55.99999999999998,240L68,240L68,240L68,240L68,240L155.99999999999994,240L155.99999999999994,240L155.99999999999994,240L155.99999999999994,240L167.99999999999997,240L167.99999999999997,240">
        </path>
        <path class="marriage" id="marriage_1_3_undefined_undefined" data-name="_"
            d="M-12,120L0,120L0,120L0,120L0,120L0,120L0,120L0,120L0,120L12,120L12,120"></path>
        <rect class="clickable" x="-22" y="113" width="20" height="15" id="node1"></rect>
        <rect class="clickable" x="-178" y="233" width="20" height="15" id="node2"></rect>
        <rect class="clickable" x="158" y="233" width="20" height="15" id="node91"></rect>
        <rect class="clickable" x="-178" y="353" width="20" height="15" id="node5"></rect>
        <rect class="clickable" x="-154" y="353" width="20" height="15" id="node6"></rect>
        <rect class="clickable" x="134" y="353" width="20" height="15" id="node65"></rect>
        <rect class="clickable" x="158" y="353" width="20" height="15" id="node66"></rect>
        <rect class="clickable" x="-298" y="473" width="20" height="15" id="node9"></rect>
        <rect class="clickable" x="-202" y="473" width="20" height="15" id="node30"></rect>
        <rect class="clickable" x="-130" y="473" width="20" height="15" id="node31"></rect>
        <rect class="clickable" x="-34" y="473" width="20" height="15" id="node52"></rect>
        <rect class="clickable" x="14" y="473" width="20" height="15" id="node55"></rect>
        <rect class="clickable" x="86" y="473" width="20" height="15" id="node69"></rect>
        <rect class="clickable" x="134" y="473" width="20" height="15" id="node72"></rect>
        <rect class="clickable" x="158" y="473" width="20" height="15" id="node73"></rect>
        <rect class="clickable" x="206" y="473" width="20" height="15" id="node82"></rect>
        <rect class="clickable" x="254" y="473" width="20" height="15" id="node85"></rect>
        <rect class="clickable" x="-282" y="593" width="20" height="15" id="node19"></rect>
        <rect class="clickable" x="-242" y="593" width="20" height="15" id="node20"></rect>
        <rect class="clickable" x="-90" y="593" width="20" height="15" id="node40"></rect>
        <rect class="clickable" x="-50" y="593" width="20" height="15" id="node41"></rect>
        <rect class="clickable" x="158" y="593" width="20" height="15" id="node76"></rect>
        <rect class="clickable" x="206" y="593" width="20" height="15" id="node79"></rect>
        <rect class="clickable" x="-322" y="713" width="20" height="15" id="node14"></rect>
        <rect class="clickable" x="-298" y="713" width="20" height="15" id="node15"></rect>
        <rect class="clickable" x="-226" y="713" width="20" height="15" id="node23"></rect>
        <rect class="clickable" x="-202" y="713" width="20" height="15" id="node24"></rect>
        <rect class="clickable" x="-130" y="713" width="20" height="15" id="node35"></rect>
        <rect class="clickable" x="-106" y="713" width="20" height="15" id="node36"></rect>
        <rect class="clickable" x="-34" y="713" width="20" height="15" id="node44"></rect>
        <rect class="clickable" x="-10" y="713" width="20" height="15" id="node45"></rect>
        <circle class="clickable" cx="12" cy="120" r="10" id="node93"></circle>
        <circle class="clickable" cx="-56" cy="240" r="10" id="node61"></circle>
        <circle class="clickable" cx="56" cy="240" r="10" id="node62"></circle>
        <circle class="clickable" cx="-192" cy="360" r="10" id="node3"></circle>
        <circle class="clickable" cx="-120" cy="360" r="10" id="node59"></circle>
        <circle class="clickable" cx="120" cy="360" r="10" id="node63"></circle>
        <circle class="clickable" cx="192" cy="360" r="10" id="node89"></circle>
        <circle class="clickable" cx="-312" cy="480" r="10" id="node7"></circle>
        <circle class="clickable" cx="-264" cy="480" r="10" id="node10"></circle>
        <circle class="clickable" cx="-48" cy="480" r="10" id="node51"></circle>
        <circle class="clickable" cx="0" cy="480" r="10" id="node54"></circle>
        <circle class="clickable" cx="48" cy="480" r="10" id="node57"></circle>
        <circle class="clickable" cx="72" cy="480" r="10" id="node67"></circle>
        <circle class="clickable" cx="120" cy="480" r="10" id="node70"></circle>
        <circle class="clickable" cx="192" cy="480" r="10" id="node81"></circle>
        <circle class="clickable" cx="240" cy="480" r="10" id="node84"></circle>
        <circle class="clickable" cx="288" cy="480" r="10" id="node87"></circle>
        <circle class="clickable" cx="-312" cy="600" r="10" id="node11"></circle>
        <circle class="clickable" cx="-192" cy="600" r="10" id="node28"></circle>
        <circle class="clickable" cx="-120" cy="600" r="10" id="node32"></circle>
        <circle class="clickable" cx="0" cy="600" r="10" id="node49"></circle>
        <circle class="clickable" cx="144" cy="600" r="10" id="node74"></circle>
        <circle class="clickable" cx="192" cy="600" r="10" id="node77"></circle>
        <circle class="clickable" cx="-336" cy="720" r="10" id="node12"></circle>
        <circle class="clickable" cx="-264" cy="720" r="10" id="node17"></circle>
        <circle class="clickable" cx="-240" cy="720" r="10" id="node21"></circle>
        <circle class="clickable" cx="-168" cy="720" r="10" id="node26"></circle>
        <circle class="clickable" cx="-144" cy="720" r="10" id="node33"></circle>
        <circle class="clickable" cx="-72" cy="720" r="10" id="node38"></circle>
        <circle class="clickable" cx="-48" cy="720" r="10" id="node42"></circle>
        <circle class="clickable" cx="24" cy="720" r="10" id="node47"></circle><text></text><text text-anchor="middle"
            style="fill: black;" x="-13" y="120" width="20" height="7.5">0 name</text><text></text><text
            text-anchor="middle" style="fill: black;" x="11" y="120" width="20" height="7.5">0 spouse</text><text
            text-anchor="middle" style="fill: black;" x="-169" y="240" width="20"
            height="7.5">FF</text><text></text><text text-anchor="middle" style="fill: black;" x="-57" y="240"
            width="20" height="7.5">FM</text><text text-anchor="middle" style="fill: black;" x="55" y="240" width="20"
            height="7.5">FFZ</text><text></text><text text-anchor="middle" style="fill: black;" x="167" y="240"
            width="20" height="7.5">FFZH</text><text text-anchor="middle" style="fill: black;" x="-193" y="360"
            width="20" height="7.5">FZ</text><text></text><text text-anchor="middle" style="fill: black;" x="-169"
            y="360" width="20" height="7.5">FZH</text><text text-anchor="middle" style="fill: black;" x="-145" y="360"
            width="20" height="7.5">F</text><text></text><text text-anchor="middle" style="fill: black;" x="-121"
            y="360" width="20" height="7.5">M</text><text text-anchor="middle" style="fill: black;" x="119" y="360"
            width="20" height="7.5">FFZD</text><text></text><text text-anchor="middle" style="fill: black;" x="143"
            y="360" width="20" height="7.5">FFZDH</text><text text-anchor="middle" style="fill: black;" x="167" y="360"
            width="20" height="7.5">FFZS</text><text></text><text text-anchor="middle" style="fill: black;" x="191"
            y="360" width="20" height="7.5">FFZSW</text><text text-anchor="middle" style="fill: black;" x="-313" y="480"
            width="20" height="7.5">Z-</text><text></text><text text-anchor="middle" style="fill: black;" x="-289"
            y="480" width="20" height="7.5">Z-H</text><text text-anchor="middle" style="fill: black;" x="-265" y="480"
            width="20" height="7.5">Z+</text><text></text><text text-anchor="middle" style="fill: black;" x="-193"
            y="480" width="20" height="7.5">Z+H</text><text text-anchor="middle" style="fill: black;" x="-121" y="480"
            width="20" height="7.5">EGO</text><text></text><text text-anchor="middle" style="fill: black;" x="-49"
            y="480" width="20" height="7.5">W</text><text text-anchor="middle" style="fill: black;" x="-25" y="480"
            width="20" height="7.5">B+</text><text></text><text text-anchor="middle" style="fill: black;" x="-1" y="480"
            width="20" height="7.5">B+W</text><text text-anchor="middle" style="fill: black;" x="23" y="480" width="20"
            height="7.5">B-</text><text></text><text text-anchor="middle" style="fill: black;" x="47" y="480" width="20"
            height="7.5">B-W</text><text text-anchor="middle" style="fill: black;" x="71" y="480" width="20"
            height="7.5">FFZSD-</text><text></text><text text-anchor="middle" style="fill: black;" x="95" y="480"
            width="20" height="7.5">FFZSD-H</text><text text-anchor="middle" style="fill: black;" x="119" y="480"
            width="20" height="7.5">FFZSD+</text><text></text><text text-anchor="middle" style="fill: black;" x="143"
            y="480" width="20" height="7.5">FFZSD+H</text><text text-anchor="middle" style="fill: black;" x="167"
            y="480" width="20" height="7.5">FFZSS</text><text></text><text text-anchor="middle" style="fill: black;"
            x="191" y="480" width="20" height="7.5">FFZSSW</text><text text-anchor="middle" style="fill: black;" x="215"
            y="480" width="20" height="7.5">FFZSS+</text><text></text><text text-anchor="middle" style="fill: black;"
            x="239" y="480" width="20" height="7.5">FFZSS+W</text><text text-anchor="middle" style="fill: black;"
            x="263" y="480" width="20" height="7.5">FFZSS-</text><text></text><text text-anchor="middle"
            style="fill: black;" x="287" y="480" width="20" height="7.5">FFZSS-W</text><text text-anchor="middle"
            style="fill: black;" x="-313" y="600" width="20" height="7.5">Z+D</text><text></text><text
            text-anchor="middle" style="fill: black;" x="-273" y="600" width="20" height="7.5">Z+DH</text><text
            text-anchor="middle" style="fill: black;" x="-233" y="600" width="20"
            height="7.5">Z+S</text><text></text><text text-anchor="middle" style="fill: black;" x="-193" y="600"
            width="20" height="7.5">Z+SW</text><text text-anchor="middle" style="fill: black;" x="-121" y="600"
            width="20" height="7.5">D</text><text></text><text text-anchor="middle" style="fill: black;" x="-81" y="600"
            width="20" height="7.5">Z+SH</text><text text-anchor="middle" style="fill: black;" x="-41" y="600"
            width="20" height="7.5">S</text><text></text><text text-anchor="middle" style="fill: black;" x="-1" y="600"
            width="20" height="7.5">SW</text><text text-anchor="middle" style="fill: black;" x="143" y="600" width="20"
            height="7.5">FFZSSD-</text><text></text><text text-anchor="middle" style="fill: black;" x="167" y="600"
            width="20" height="7.5">FFZSSD-H</text><text text-anchor="middle" style="fill: black;" x="191" y="600"
            width="20" height="7.5">FFZSSD+</text><text></text><text text-anchor="middle" style="fill: black;" x="215"
            y="600" width="20" height="7.5">FFZSSD+H</text><text text-anchor="middle" style="fill: black;" x="-337"
            y="720" width="20" height="7.5">Z+DD</text><text></text><text text-anchor="middle" style="fill: black;"
            x="-313" y="720" width="20" height="7.5">Z+DDH</text><text text-anchor="middle" style="fill: black;"
            x="-289" y="720" width="20" height="7.5">Z+DS</text><text></text><text text-anchor="middle"
            style="fill: black;" x="-265" y="720" width="20" height="7.5">Z+DSW</text><text text-anchor="middle"
            style="fill: black;" x="-241" y="720" width="20" height="7.5">Z+SD</text><text></text><text
            text-anchor="middle" style="fill: black;" x="-217" y="720" width="20" height="7.5">Z+SDH</text><text
            text-anchor="middle" style="fill: black;" x="-193" y="720" width="20"
            height="7.5">Z+SS</text><text></text><text text-anchor="middle" style="fill: black;" x="-169" y="720"
            width="20" height="7.5">Z+SSW</text><text text-anchor="middle" style="fill: black;" x="-145" y="720"
            width="20" height="7.5">DD</text><text></text><text text-anchor="middle" style="fill: black;" x="-121"
            y="720" width="20" height="7.5">DDH</text><text text-anchor="middle" style="fill: black;" x="-97" y="720"
            width="20" height="7.5">DS</text><text></text><text text-anchor="middle" style="fill: black;" x="-73"
            y="720" width="20" height="7.5">DSW</text><text text-anchor="middle" style="fill: black;" x="-49" y="720"
            width="20" height="7.5">SD</text><text></text><text text-anchor="middle" style="fill: black;" x="-25"
            y="720" width="20" height="7.5">SDH</text><text text-anchor="middle" style="fill: black;" x="-1" y="720"
            width="20" height="7.5">SS</text><text></text><text text-anchor="middle" style="fill: black;" x="23" y="720"
            width="20" height="7.5">SSW</text>
        <rect class="clickable" x="-66" y="203" width="20" height="15" id="fode61"></rect>
    </g>
</svg>